<svg xmlns="http://www.w3.org/2000/svg" viewBox="0 0 1000 400" preserveAspectRatio="none">
<polyline points="12.0,12.0 12.2,12.0 12.5,12.4 12.7,13.2 13.0,14.0 13.2,15.2 13.5,16.3 13.7,17.9 14.0,19.5 14.2,21.5 14.4,23.8 14.7,26.2 14.9,28.6 15.2,31.3 15.4,34.1 15.7,37.2 15.9,40.4 16.1,43.5 16.4,47.1 16.6,50.6 16.9,54.6 17.1,58.1 17.4,62.1 17.6,66.0 17.9,69.9 18.1,73.9 18.3,78.2 18.6,82.2 18.8,86.5 19.1,90.4 19.3,94.8 19.6,99.1 19.8,103.4 20.1,107.8 20.3,112.1 20.5,116.4 20.8,120.8 21.0,125.1 21.3,129.1 21.5,133.4 21.8,137.7 22.0,142.1 22.2,146.0 22.5,150.3 22.7,154.7 23.0,158.6 23.2,162.6 23.5,166.9 23.7,170.8 24.0,174.8 24.2,178.7 24.4,182.7 24.7,186.6 24.9,190.5 25.2,194.1 25.4,198.0 25.7,201.6 25.9,205.5 26.2,209.1 26.4,212.6 26.6,216.2 26.9,219.7 27.1,223.3 27.4,226.8 27.6,230.0 27.9,233.5 28.1,236.7 28.3,239.8 28.6,243.4 28.8,246.5 29.1,249.7 29.3,252.8 29.6,255.6 29.8,258.7 30.1,261.9 30.3,264.6 30.5,267.4 30.8,270.5 31.0,273.3 31.3,276.1 31.5,278.8 31.8,281.2 32.0,283.9 32.3,286.7 32.5,289.1 32.7,291.8 33.0,294.2 33.2,296.6 33.5,299.3 33.7,301.7 34.0,304.1 34.2,306.0 34.4,308.4 34.7,310.8 34.9,312.7 35.2,315.1 35.4,317.1 35.7,319.4 35.9,321.4 36.2,323.4 36.4,325.3 36.6,327.3 36.9,329.3 37.1,331.2 37.4,332.8 37.6,334.8 37.9,336.4 38.1,338.3 38.4,339.9 38.6,341.5 38.8,343.5 39.1,345.0 39.3,346.6 39.6,348.2 39.8,349.8 40.1,351.0 40.3,352.5 40.5,354.1 40.8,355.3 41.0,356.9 41.3,358.0 41.5,359.2 41.8,360.4 42.0,362.0 42.3,363.2 42.5,364.4 42.7,365.5 43.0,366.3 43.2,367.5 43.5,368.7 43.7,369.9 44.0,370.7 44.2,371.8 44.5,372.6 44.7,373.4 44.9,374.6 45.2,375.4 45.4,376.2 45.7,377.0 45.9,377.8 46.2,378.5 46.4,379.3 46.6,379.7 46.9,380.5 47.1,381.3 47.4,381.7 47.6,382.5 47.9,382.9 48.1,383.3 48.4,383.7 48.6,384.5 48.8,384.8 49.1,385.2 49.3,385.6 49.6,386.0 49.8,386.4 50.1,386.4 50.3,386.8 50.6,387.2 50.8,387.2 51.0,387.6 51.3,387.6 51.5,387.6 51.8,388.0 52.0,388.0 52.3,388.0 52.5,388.0 52.7,388.0 53.0,388.0 53.2,388.0 53.5,388.0 53.7,388.0 54.0,387.6 54.2,387.6 54.5,387.2 54.7,387.2 54.9,386.8 55.2,386.4 55.4,386.4 55.7,386.0 55.9,385.6 56.2,385.2 56.4,384.8 56.7,384.5 56.9,384.1 57.1,383.7 57.4,382.9 57.6,382.5 57.9,381.7 58.1,381.3 58.4,380.5 58.6,380.1 58.8,379.3 59.1,378.5 59.3,377.8 59.6,377.0 59.8,376.2 60.1,375.4 60.3,374.6 60.6,373.8 60.8,373.0 61.1,371.8 61.3,371.1 61.6,369.9 61.8,369.1 62.0,367.9 62.3,366.7 62.5,365.5 62.8,364.4 63.0,363.2 63.3,362.0 63.5,360.8 63.8,359.6 64.0,358.4 64.2,356.9 64.5,355.7 64.7,354.1 65.0,352.9 65.2,351.3 65.5,349.8 65.7,348.6 65.9,347.0 66.2,345.4 66.4,343.9 66.7,341.9 66.9,340.3 67.2,338.7 67.4,336.8 67.7,335.2 67.9,333.2 68.1,331.6 68.4,329.7 68.6,327.7 68.9,325.7 69.1,323.8 69.4,321.8 69.6,319.8 69.9,317.8 70.1,315.5 70.3,313.5 70.6,311.1 70.8,309.2 71.1,306.8 71.3,304.4 71.6,302.1 71.8,299.7 72.0,297.4 72.3,295.0 72.5,292.2 72.8,289.9 73.0,287.5 73.3,284.7 73.5,282.0 73.8,279.2 74.0,276.5 74.2,273.7 74.5,270.9 74.7,268.2 75.0,265.4 75.2,262.3 75.5,259.5 75.7,256.4 76.0,253.6 76.2,250.4 76.4,247.3 76.7,244.1 76.9,241.0 77.2,237.4 77.4,234.3 77.7,230.7 77.9,227.6 78.1,224.0 78.4,220.5 78.6,216.9 78.9,213.4 79.1,209.9 79.4,206.3 79.6,202.8 79.9,198.8 80.1,195.3 80.3,191.3 80.6,187.4 80.8,183.8 81.1,179.9 81.3,176.0 81.6,171.6 81.8,167.7 82.1,163.7 82.3,159.8 82.5,155.5 82.8,151.5 83.0,147.2 83.3,142.9 83.5,138.9 83.8,134.6 84.0,130.2 84.2,125.9 84.5,121.6 84.7,117.2 85.0,113.3 85.2,109.0 85.5,104.6 85.7,100.3 86.0,95.9 86.2,91.6 86.4,87.3 86.7,83.3 86.9,79.0 87.2,75.1 87.4,70.7 87.7,66.8 87.9,62.8 88.2,58.9 88.4,55.4 88.6,51.8 88.9,47.9 89.1,44.7 89.4,41.2 89.6,38.0 89.9,34.9 90.1,32.1 90.3,29.3 90.6,26.6 90.8,24.2 91.1,22.2 91.3,19.9 91.6,18.3 91.8,16.7 92.1,15.2 92.3,14.0 92.5,13.2 92.8,12.8 93.0,12.0 93.3,12.0 93.5,12.0 93.8,12.4 94.0,12.8 94.3,13.6 94.5,14.8 94.7,15.9 95.0,17.5 95.2,19.1 95.5,21.1 95.7,23.0 96.0,25.4 96.2,27.8 96.4,30.5 96.7,33.3 96.9,36.4 97.2,39.6 97.4,42.7 97.7,46.3 97.9,49.8 98.2,53.4 98.4,57.3 98.6,60.9 98.9,64.8 99.1,68.8 99.4,73.1 99.6,77.0 99.9,81.0 100.1,85.3 100.4,89.6 100.6,94.0 100.8,97.9 101.1,102.3 101.3,106.6 101.6,110.9 101.8,115.3 102.1,119.6 102.3,123.9 102.5,128.3 102.8,132.2 103.0,136.5 103.3,140.9 103.5,145.2 103.8,149.2 104.0,153.5 104.3,157.4 104.5,161.8 104.7,165.7 105.0,169.7 105.2,174.0 105.5,177.9 105.7,181.9 106.0,185.4 106.2,189.4 106.5,193.3 106.7,197.2 106.9,200.8 107.2,204.3 107.4,208.3 107.7,211.8 107.9,215.4 108.2,218.9 108.4,222.5 108.6,225.6 108.9,229.2 109.1,232.7 109.4,235.9 109.6,239.0 109.9,242.6 110.1,245.7 110.4,248.9 110.6,252.0 110.8,254.8 111.1,257.9 111.3,261.1 111.6,263.8 111.8,266.6 112.1,269.8 112.3,272.5 112.6,275.3 112.8,278.0 113.0,280.8 113.3,283.6 113.5,285.9 113.8,288.7 114.0,291.0 114.3,293.8 114.5,296.2 114.7,298.5 115.0,300.9 115.2,303.3 115.5,305.6 115.7,308.0 116.0,310.0 116.2,312.3 116.5,314.7 116.7,316.7 116.9,318.6 117.2,321.0 117.4,323.0 117.7,324.9 117.9,326.9 118.2,328.9 118.4,330.5 118.7,332.4 118.9,334.4 119.1,336.0 119.4,337.9 119.6,339.5 119.9,341.1 120.1,343.1 120.4,344.6 120.6,346.2 120.8,347.8 121.1,349.4 121.3,350.6 121.6,352.1 121.8,353.7 122.1,354.9 122.3,356.5 122.6,357.7 122.8,358.8 123.0,360.4 123.3,361.6 123.5,362.8 123.8,364.0 124.0,365.1 124.3,366.3 124.5,367.5 124.8,368.3 125.0,369.5 125.2,370.3 125.5,371.4 125.7,372.2 126.0,373.4 126.2,374.2 126.5,375.0 126.7,375.8 126.9,376.6 127.2,377.4 127.4,378.1 127.7,378.9 127.9,379.7 128.2,380.5 128.4,380.9 128.7,381.7 128.9,382.1 129.1,382.9 129.4,383.3 129.6,383.7 129.9,384.1 130.1,384.8 130.4,385.2 130.6,385.6 130.9,385.6 131.1,386.0 131.3,386.4 131.6,386.8 131.8,386.8 132.1,387.2 132.3,387.6 132.6,387.6 132.8,387.6 133.0,388.0 133.3,388.0 133.5,388.0 133.8,388.0 134.0,388.0 134.3,388.0 134.5,388.0 134.8,388.0 135.0,388.0 135.2,387.6 135.5,387.6 135.7,387.2 136.0,387.2 136.2,386.8 136.5,386.8 136.7,386.4 137.0,386.0 137.2,385.6 137.4,385.2 137.7,384.8 137.9,384.5 138.2,384.1 138.4,383.7 138.7,383.3 138.9,382.5 139.1,382.1 139.4,381.3 139.6,380.9 139.9,380.1 140.1,379.3 140.4,378.9 140.6,378.1 140.9,377.4 141.1,376.6 141.3,375.8 141.6,375.0 141.8,373.8 142.1,373.0 142.3,372.2 142.6,371.1 142.8,370.3 143.1,369.1 143.3,368.3 143.5,367.1 143.8,365.9 144.0,364.7 144.3,363.6 144.5,362.4 144.8,361.2 145.0,360.0 145.2,358.8 145.5,357.3 145.7,356.1 146.0,354.5 146.2,353.3 146.5,351.7 146.7,350.2 147.0,349.0 147.2,347.4 147.4,345.8 147.7,344.3 147.9,342.7 148.2,340.7 148.4,339.1 148.7,337.6 148.9,335.6 149.2,334.0 149.4,332.0 149.6,330.1 149.9,328.1 150.1,326.1 150.4,324.2 150.6,322.2 150.9,320.2 151.1,318.2 151.3,316.3 151.6,313.9 151.8,311.9 152.1,309.6 152.3,307.2 152.6,304.8 152.8,302.9 153.1,300.5 153.3,297.7 153.5,295.4 153.8,293.0 154.0,290.6 154.3,287.9 154.5,285.5 154.8,282.8 155.0,280.0 155.3,277.2 155.5,274.5 155.7,271.7 156.0,269.0 156.2,266.2 156.5,263.1 156.7,260.3 157.0,257.1 157.2,254.0 157.4,251.2 157.7,248.1 157.9,244.9 158.2,241.8 158.4,238.2 158.7,235.1 158.9,231.9 159.2,228.4 159.4,224.8 159.7,221.7 159.9,218.1 160.2,214.6 160.4,211.0 160.6,207.1 160.9,203.5 161.1,200.0 161.4,196.1 161.6,192.5 161.9,188.6 162.1,184.6 162.4,180.7 162.6,176.7 162.8,172.8 163.1,168.9 163.3,164.9 163.6,160.6 163.8,156.6 164.1,152.3 164.3,148.4 164.5,144.0 164.8,139.7 165.0,135.8 165.3,131.4 165.5,127.1 165.8,122.8 166.0,118.4 166.3,114.1 166.5,109.7 166.7,105.4 167.0,101.5 167.2,97.1 167.5,92.8 167.7,88.5 168.0,84.1 168.2,80.2 168.5,75.8 168.7,71.9 168.9,68.0 169.2,64.0 169.4,60.1 169.7,56.1 169.9,52.6 170.2,49.0 170.4,45.5 170.6,42.0 170.9,38.8 171.1,35.6 171.4,32.9 171.6,29.7 171.9,27.4 172.1,25.0 172.4,22.6 172.6,20.7 172.8,18.7 173.1,17.1 173.3,15.5 173.6,14.4 173.8,13.6 174.1,12.8 174.3,12.4 174.6,12.0 174.8,12.0 175.0,12.4 175.3,12.8 175.5,13.6 175.8,14.4 176.0,15.5 176.3,17.1 176.5,18.7 176.7,20.7 177.0,22.6 177.2,25.0 177.5,27.4 177.7,29.7 178.0,32.9 178.2,35.6 178.5,38.8 178.7,42.0 178.9,45.5 179.2,49.0 179.4,52.6 179.7,56.1 179.9,60.1 180.2,64.0 180.4,68.0 180.7,71.9 180.9,75.8 181.1,80.2 181.4,84.1 181.6,88.5 181.9,92.8 182.1,97.1 182.4,101.5 182.6,105.4 182.8,109.7 183.1,114.1 183.3,118.4 183.6,122.8 183.8,127.1 184.1,131.4 184.3,135.8 184.6,139.7 184.8,144.0 185.0,148.4 185.3,152.3 185.5,156.6 185.8,160.6 186.0,164.9 186.3,168.9 186.5,172.8 186.8,176.7 187.0,180.7 187.2,184.6 187.5,188.6 187.7,192.5 188.0,196.1 188.2,200.0 188.5,203.5 188.7,207.1 188.9,211.0 189.2,214.6 189.4,218.1 189.7,221.7 189.9,224.8 190.2,228.4 190.4,231.9 190.7,235.1 190.9,238.2 191.1,241.8 191.4,244.9 191.6,248.1 191.9,251.2 192.1,254.0 192.4,257.1 192.6,260.3 192.9,263.1 193.1,266.2 193.3,269.0 193.6,271.7 193.8,274.5 194.1,277.2 194.3,280.0 194.6,282.8 194.8,285.5 195.0,287.9 195.3,290.6 195.5,293.0 195.8,295.4 196.0,297.7 196.3,300.5 196.5,302.9 196.8,304.8 197.0,307.2 197.2,309.6 197.5,311.9 197.7,313.9 198.0,316.3 198.2,318.2 198.5,320.2 198.7,322.2 199.0,324.2 199.2,326.1 199.4,328.1 199.7,330.1 199.9,332.0 200.2,334.0 200.4,335.6 200.7,337.6 200.9,339.1 201.1,340.7 201.4,342.7 201.6,344.3 201.9,345.8 202.1,347.4 202.4,349.0 202.6,350.2 202.9,351.7 203.1,353.3 203.3,354.5 203.6,356.1 203.8,357.3 204.1,358.8 204.3,360.0 204.6,361.2 204.8,362.4 205.1,363.6 205.3,364.7 205.5,365.9 205.8,367.1 206.0,368.3 206.3,369.1 206.5,370.3 206.8,371.1 207.0,372.2 207.2,373.0 207.5,373.8 207.7,375.0 208.0,375.8 208.2,376.6 208.5,377.4 208.7,378.1 209.0,378.9 209.2,379.3 209.4,380.1 209.7,380.9 209.9,381.3 210.2,382.1 210.4,382.5 210.7,383.3 210.9,383.7 211.2,384.1 211.4,384.5 211.6,384.8 211.9,385.2 212.1,385.6 212.4,386.0 212.6,386.4 212.9,386.8 213.1,386.8 213.3,387.2 213.6,387.2 213.8,387.6 214.1,387.6 214.3,388.0 214.6,388.0 214.8,388.0 215.1,388.0 215.3,388.0 215.5,388.0 215.8,388.0 216.0,388.0 216.3,388.0 216.5,387.6 216.8,387.6 217.0,387.6 217.3,387.2 217.5,386.8 217.7,386.8 218.0,386.4 218.2,386.0 218.5,385.6 218.7,385.6 219.0,385.2 219.2,384.8 219.4,384.1 219.7,383.7 219.9,383.3 220.2,382.9 220.4,382.1 220.7,381.7 220.9,380.9 221.2,380.5 221.4,379.7 221.6,378.9 221.9,378.1 222.1,377.4 222.4,376.6 222.6,375.8 222.9,375.0 223.1,374.2 223.4,373.4 223.6,372.2 223.8,371.4 224.1,370.3 224.3,369.5 224.6,368.3 224.8,367.5 225.1,366.3 225.3,365.1 225.5,364.0 225.8,362.8 226.0,361.6 226.3,360.4 226.5,358.8 226.8,357.7 227.0,356.5 227.3,354.9 227.5,353.7 227.7,352.1 228.0,350.6 228.2,349.4 228.5,347.8 228.7,346.2 229.0,344.6 229.2,343.1 229.5,341.1 229.7,339.5 229.9,337.9 230.2,336.0 230.4,334.4 230.7,332.4 230.9,330.5 231.2,328.9 231.4,326.9 231.6,324.9 231.9,323.0 232.1,321.0 232.4,318.6 232.6,316.7 232.9,314.7 233.1,312.3 233.4,310.0 233.6,308.0 233.8,305.6 234.1,303.3 234.3,300.9 234.6,298.5 234.8,296.2 235.1,293.8 235.3,291.0 235.6,288.7 235.8,285.9 236.0,283.6 236.3,280.8 236.5,278.0 236.8,275.3 237.0,272.5 237.3,269.8 237.5,266.6 237.7,263.8 238.0,261.1 238.2,257.9 238.5,254.8 238.7,252.0 239.0,248.9 239.2,245.7 239.5,242.6 239.7,239.0 239.9,235.9 240.2,232.7 240.4,229.2 240.7,225.6 240.9,222.5 241.2,218.9 241.4,215.4 241.7,211.8 241.9,208.3 242.1,204.3 242.4,200.8 242.6,197.2 242.9,193.3 243.1,189.4 243.4,185.4 243.6,181.9 243.8,177.9 244.1,174.0 244.3,169.7 244.6,165.7 244.8,161.8 245.1,157.4 245.3,153.5 245.6,149.2 245.8,145.2 246.0,140.9 246.3,136.5 246.5,132.2 246.8,128.3 247.0,123.9 247.3,119.6 247.5,115.3 247.8,110.9 248.0,106.6 248.2,102.3 248.5,97.9 248.7,94.0 249.0,89.6 249.2,85.3 249.5,81.0 249.7,77.0 249.9,73.1 250.2,68.8 250.4,64.8 250.7,60.9 250.9,57.3 251.2,53.4 251.4,49.8 251.7,46.3 251.9,42.7 252.1,39.6 252.4,36.4 252.6,33.3 252.9,30.5 253.1,27.8 253.4,25.4 253.6,23.0 253.9,21.1 254.1,19.1 254.3,17.5 254.6,15.9 254.8,14.8 255.1,13.6 255.3,12.8 255.6,12.4 255.8,12.0 256.1,12.0 256.3,12.0 256.6,12.8 256.8,13.2 257.0,14.0 257.3,15.2 257.5,16.7 257.8,18.3 258.0,19.9 258.3,22.2 258.5,24.2 258.8,26.6 259.0,29.3 259.2,32.1 259.5,34.9 259.7,38.0 260.0,41.2 260.2,44.7 260.5,47.9 260.7,51.8 261.0,55.4 261.2,58.9 261.4,62.8 261.7,66.8 261.9,70.7 262.2,75.1 262.4,79.0 262.7,83.3 262.9,87.3 263.1,91.6 263.4,95.9 263.6,100.3 263.9,104.6 264.1,109.0 264.4,113.3 264.6,117.2 264.9,121.6 265.1,125.9 265.3,130.2 265.6,134.6 265.8,138.9 266.1,142.9 266.3,147.2 266.6,151.5 266.8,155.5 267.1,159.8 267.3,163.7 267.5,167.7 267.8,171.6 268.0,176.0 268.3,179.9 268.5,183.8 268.8,187.4 269.0,191.3 269.2,195.3 269.5,198.8 269.7,202.8 270.0,206.3 270.2,209.9 270.5,213.4 270.7,216.9 271.0,220.5 271.2,224.0 271.4,227.6 271.7,230.7 271.9,234.3 272.2,237.4 272.4,241.0 272.7,244.1 272.9,247.3 273.2,250.4 273.4,253.6 273.6,256.4 273.9,259.5 274.1,262.3 274.4,265.4 274.6,268.2 274.9,270.9 275.1,273.7 275.3,276.5 275.6,279.2 275.8,282.0 276.1,284.7 276.3,287.5 276.6,289.9 276.8,292.2 277.1,295.0 277.3,297.4 277.5,299.7 277.8,302.1 278.0,304.4 278.3,306.8 278.5,309.2 278.8,311.1 279.0,313.5 279.3,315.5 279.5,317.8 279.7,319.8 280.0,321.8 280.2,323.8 280.5,325.7 280.7,327.7 281.0,329.7 281.2,331.6 281.4,333.2 281.7,335.2 281.9,336.8 282.2,338.7 282.4,340.3 282.7,341.9 282.9,343.9 283.2,345.4 283.4,347.0 283.6,348.6 283.9,349.8 284.1,351.3 284.4,352.9 284.6,354.1 284.9,355.7 285.1,356.9 285.4,358.4 285.6,359.6 285.8,360.8 286.1,362.0 286.3,363.2 286.6,364.4 286.8,365.5 287.1,366.7 287.3,367.9 287.5,369.1 287.8,369.9 288.0,371.1 288.3,371.8 288.5,373.0 288.8,373.8 289.0,374.6 289.3,375.4 289.5,376.2 289.7,377.0 290.0,377.8 290.2,378.5 290.5,379.3 290.7,380.1 291.0,380.5 291.2,381.3 291.5,381.7 291.7,382.5 291.9,382.9 292.2,383.7 292.4,384.1 292.7,384.5 292.9,384.8 293.2,385.2 293.4,385.6 293.6,386.0 293.9,386.4 294.1,386.4 294.4,386.8 294.6,387.2 294.9,387.2 295.1,387.6 295.4,387.6 295.6,388.0 295.8,388.0 296.1,388.0 296.3,388.0 296.6,388.0 296.8,388.0 297.1,388.0 297.3,388.0 297.6,388.0 297.8,387.6 298.0,387.6 298.3,387.6 298.5,387.2 298.8,387.2 299.0,386.8 299.3,386.4 299.5,386.4 299.7,386.0 300.0,385.6 300.2,385.2 300.5,384.8 300.7,384.5 301.0,383.7 301.2,383.3 301.5,382.9 301.7,382.5 301.9,381.7 302.2,381.3 302.4,380.5 302.7,379.7 302.9,379.3 303.2,378.5 303.4,377.8 303.7,377.0 303.9,376.2 304.1,375.4 304.4,374.6 304.6,373.4 304.9,372.6 305.1,371.8 305.4,370.7 305.6,369.9 305.8,368.7 306.1,367.5 306.3,366.3 306.6,365.5 306.8,364.4 307.1,363.2 307.3,362.0 307.6,360.4 307.8,359.2 308.0,358.0 308.3,356.9 308.5,355.3 308.8,354.1 309.0,352.5 309.3,351.0 309.5,349.8 309.8,348.2 310.0,346.6 310.2,345.0 310.5,343.5 310.7,341.5 311.0,339.9 311.2,338.3 311.5,336.4 311.7,334.8 311.9,332.8 312.2,331.2 312.4,329.3 312.7,327.3 312.9,325.3 313.2,323.4 313.4,321.4 313.7,319.4 313.9,317.1 314.1,315.1 314.4,312.7 314.6,310.8 314.9,308.4 315.1,306.0 315.4,304.1 315.6,301.7 315.9,299.3 316.1,296.6 316.3,294.2 316.6,291.8 316.8,289.1 317.1,286.7 317.3,283.9 317.6,281.2 317.8,278.8 318.0,276.1 318.3,273.3 318.5,270.5 318.8,267.4 319.0,264.6 319.3,261.9 319.5,258.7 319.8,255.6 320.0,252.8 320.2,249.7 320.5,246.5 320.7,243.4 321.0,239.8 321.2,236.7 321.5,233.5 321.7,230.0 322.0,226.8 322.2,223.3 322.4,219.7 322.7,216.2 322.9,212.6 323.2,209.1 323.4,205.5 323.7,201.6 323.9,198.0 324.1,194.1 324.4,190.5 324.6,186.6 324.9,182.7 325.1,178.7 325.4,174.8 325.6,170.8 325.9,166.9 326.1,162.6 326.3,158.6 326.6,154.7 326.8,150.3 327.1,146.0 327.3,142.1 327.6,137.7 327.8,133.4 328.1,129.1 328.3,125.1 328.5,120.8 328.8,116.4 329.0,112.1 329.3,107.8 329.5,103.4 329.8,99.1 330.0,94.8 330.2,90.4 330.5,86.5 330.7,82.2 331.0,78.2 331.2,73.9 331.5,69.9 331.7,66.0 332.0,62.1 332.2,58.1 332.4,54.6 332.7,50.6 332.9,47.1 333.2,43.5 333.4,40.4 333.7,37.2 333.9,34.1 334.2,31.3 334.4,28.6 334.6,26.2 334.9,23.8 335.1,21.5 335.4,19.5 335.6,17.9 335.9,16.3 336.1,15.2 336.3,14.0 336.6,13.2 336.8,12.4 337.1,12.0 337.3,12.0 337.6,12.0 337.8,12.4 338.1,13.2 338.3,14.0 338.5,15.2 338.8,16.3 339.0,17.9 339.3,19.5 339.5,21.5 339.8,23.8 340.0,26.2 340.3,28.6 340.5,31.3 340.7,34.1 341.0,37.2 341.2,40.4 341.5,43.5 341.7,47.1 342.0,50.6 342.2,54.6 342.4,58.1 342.7,62.1 342.9,66.0 343.2,69.9 343.4,73.9 343.7,78.2 343.9,82.2 344.2,86.5 344.4,90.4 344.6,94.8 344.9,99.1 345.1,103.4 345.4,107.8 345.6,112.1 345.9,116.4 346.1,120.8 346.4,125.1 346.6,129.1 346.8,133.4 347.1,137.7 347.3,142.1 347.6,146.0 347.8,150.3 348.1,154.7 348.3,158.6 348.5,162.6 348.8,166.9 349.0,170.8 349.3,174.8 349.5,178.7 349.8,182.7 350.0,186.6 350.3,190.5 350.5,194.1 350.7,198.0 351.0,201.6 351.2,205.5 351.5,209.1 351.7,212.6 352.0,216.2 352.2,219.7 352.5,223.3 352.7,226.8 352.9,230.0 353.2,233.5 353.4,236.7 353.7,239.8 353.9,243.4 354.2,246.5 354.4,249.7 354.7,252.8 354.9,255.6 355.2,258.7 355.4,261.9 355.6,264.6 355.9,267.4 356.1,270.5 356.4,273.3 356.6,276.1 356.9,278.8 357.1,281.2 357.4,283.9 357.6,286.7 357.8,289.1 358.1,291.8 358.3,294.2 358.6,296.6 358.8,299.3 359.1,301.7 359.3,304.1 359.6,306.0 359.8,308.4 360.0,310.8 360.3,312.7 360.5,315.1 360.8,317.1 361.0,319.4 361.3,321.4 361.5,323.4 361.7,325.3 362.0,327.3 362.2,329.3 362.5,331.2 362.7,332.8 363.0,334.8 363.2,336.4 363.5,338.3 363.7,339.9 363.9,341.5 364.2,343.5 364.4,345.0 364.7,346.6 364.9,348.2 365.2,349.8 365.4,351.0 365.7,352.5 365.9,354.1 366.1,355.3 366.4,356.9 366.6,358.0 366.9,359.2 367.1,360.4 367.4,362.0 367.6,363.2 367.8,364.4 368.1,365.5 368.3,366.3 368.6,367.5 368.8,368.7 369.1,369.9 369.3,370.7 369.6,371.8 369.8,372.6 370.0,373.4 370.3,374.6 370.5,375.4 370.8,376.2 371.0,377.0 371.3,377.8 371.5,378.5 371.8,379.3 372.0,379.7 372.2,380.5 372.5,381.3 372.7,381.7 373.0,382.5 373.2,382.9 373.5,383.3 373.7,383.7 373.9,384.5 374.2,384.8 374.4,385.2 374.7,385.6 374.9,386.0 375.2,386.4 375.4,386.4 375.7,386.8 375.9,387.2 376.1,387.2 376.4,387.6 376.6,387.6 376.9,387.6 377.1,388.0 377.4,388.0 377.6,388.0 377.9,388.0 378.1,388.0 378.3,388.0 378.6,388.0 378.8,388.0 379.1,388.0 379.3,387.6 379.6,387.6 379.8,387.2 380.0,387.2 380.3,386.8 380.5,386.4 380.8,386.4 381.0,386.0 381.3,385.6 381.5,385.2 381.8,384.8 382.0,384.5 382.2,384.1 382.5,383.7 382.7,382.9 383.0,382.5 383.2,381.7 383.5,381.3 383.7,380.5 384.0,380.1 384.2,379.3 384.4,378.5 384.7,377.8 384.9,377.0 385.2,376.2 385.4,375.4 385.7,374.6 385.9,373.8 386.1,373.0 386.4,371.8 386.6,371.1 386.9,369.9 387.1,369.1 387.4,367.9 387.6,366.7 387.9,365.5 388.1,364.4 388.3,363.2 388.6,362.0 388.8,360.8 389.1,359.6 389.3,358.4 389.6,356.9 389.8,355.7 390.1,354.1 390.3,352.9 390.5,351.3 390.8,349.8 391.0,348.6 391.3,347.0 391.5,345.4 391.8,343.9 392.0,341.9 392.2,340.3 392.5,338.7 392.7,336.8 393.0,335.2 393.2,333.2 393.5,331.6 393.7,329.7 394.0,327.7 394.2,325.7 394.4,323.8 394.7,321.8 394.9,319.8 395.2,317.8 395.4,315.5 395.7,313.5 395.9,311.1 396.2,309.2 396.4,306.8 396.6,304.4 396.9,302.1 397.1,299.7 397.4,297.4 397.6,295.0 397.9,292.2 398.1,289.9 398.3,287.5 398.6,284.7 398.8,282.0 399.1,279.2 399.3,276.5 399.6,273.7 399.8,270.9 400.1,268.2 400.3,265.4 400.5,262.3 400.8,259.5 401.0,256.4 401.3,253.6 401.5,250.4 401.8,247.3 402.0,244.1 402.3,241.0 402.5,237.4 402.7,234.3 403.0,230.7 403.2,227.6 403.5,224.0 403.7,220.5 404.0,216.9 404.2,213.4 404.4,209.9 404.7,206.3 404.9,202.8 405.2,198.8 405.4,195.3 405.7,191.3 405.9,187.4 406.2,183.8 406.4,179.9 406.6,176.0 406.9,171.6 407.1,167.7 407.4,163.7 407.6,159.8 407.9,155.5 408.1,151.5 408.4,147.2 408.6,142.9 408.8,138.9 409.1,134.6 409.3,130.2 409.6,125.9 409.8,121.6 410.1,117.2 410.3,113.3 410.5,109.0 410.8,104.6 411.0,100.3 411.3,95.9 411.5,91.6 411.8,87.3 412.0,83.3 412.3,79.0 412.5,75.1 412.7,70.7 413.0,66.8 413.2,62.8 413.5,58.9 413.7,55.4 414.0,51.8 414.2,47.9 414.5,44.7 414.7,41.2 414.9,38.0 415.2,34.9 415.4,32.1 415.7,29.3 415.9,26.6 416.2,24.2 416.4,22.2 416.6,19.9 416.9,18.3 417.1,16.7 417.4,15.2 417.6,14.0 417.9,13.2 418.1,12.8 418.4,12.0 418.6,12.0 418.8,12.0 419.1,12.4 419.3,12.8 419.6,13.6 419.8,14.8 420.1,15.9 420.3,17.5 420.6,19.1 420.8,21.1 421.0,23.0 421.3,25.4 421.5,27.8 421.8,30.5 422.0,33.3 422.3,36.4 422.5,39.6 422.7,42.7 423.0,46.3 423.2,49.8 423.5,53.4 423.7,57.3 424.0,60.9 424.2,64.8 424.5,68.8 424.7,73.1 424.9,77.0 425.2,81.0 425.4,85.3 425.7,89.6 425.9,94.0 426.2,97.9 426.4,102.3 426.7,106.6 426.9,110.9 427.1,115.3 427.4,119.6 427.6,123.9 427.9,128.3 428.1,132.2 428.4,136.5 428.6,140.9 428.8,145.2 429.1,149.2 429.3,153.5 429.6,157.4 429.8,161.8 430.1,165.7 430.3,169.7 430.6,174.0 430.8,177.9 431.0,181.9 431.3,185.4 431.5,189.4 431.8,193.3 432.0,197.2 432.3,200.8 432.5,204.3 432.8,208.3 433.0,211.8 433.2,215.4 433.5,218.9 433.7,222.5 434.0,225.6 434.2,229.2 434.5,232.7 434.7,235.9 434.9,239.0 435.2,242.6 435.4,245.7 435.7,248.9 435.9,252.0 436.2,254.8 436.4,257.9 436.7,261.1 436.9,263.8 437.1,266.6 437.4,269.8 437.6,272.5 437.9,275.3 438.1,278.0 438.4,280.8 438.6,283.6 438.9,285.9 439.1,288.7 439.3,291.0 439.6,293.8 439.8,296.2 440.1,298.5 440.3,300.9 440.6,303.3 440.8,305.6 441.0,308.0 441.3,310.0 441.5,312.3 441.8,314.7 442.0,316.7 442.3,318.6 442.5,321.0 442.8,323.0 443.0,324.9 443.2,326.9 443.5,328.9 443.7,330.5 444.0,332.4 444.2,334.4 444.5,336.0 444.7,337.9 445.0,339.5 445.2,341.1 445.4,343.1 445.7,344.6 445.9,346.2 446.2,347.8 446.4,349.4 446.7,350.6 446.9,352.1 447.1,353.7 447.4,354.9 447.6,356.5 447.9,357.7 448.1,358.8 448.4,360.4 448.6,361.6 448.9,362.8 449.1,364.0 449.3,365.1 449.6,366.3 449.8,367.5 450.1,368.3 450.3,369.5 450.6,370.3 450.8,371.4 451.1,372.2 451.3,373.4 451.6,374.2 451.8,375.0 452.1,375.8 452.3,376.6 452.5,377.4 452.8,378.1 453.0,378.9 453.3,379.7 453.5,380.5 453.8,380.9 454.0,381.7 454.2,382.1 454.5,382.9 454.7,383.3 455.0,383.7 455.2,384.1 455.5,384.8 455.7,385.2 456.0,385.6 456.2,385.6 456.4,386.0 456.7,386.4 456.9,386.8 457.2,386.8 457.4,387.2 457.7,387.6 457.9,387.6 458.2,387.6 458.4,388.0 458.6,388.0 458.9,388.0 459.1,388.0 459.4,388.0 459.6,388.0 459.9,388.0 460.1,388.0 460.3,388.0 460.6,387.6 460.8,387.6 461.1,387.2 461.3,387.2 461.6,386.8 461.8,386.8 462.1,386.4 462.3,386.0 462.5,385.6 462.8,385.2 463.0,384.8 463.3,384.5 463.5,384.1 463.8,383.7 464.0,383.3 464.3,382.5 464.5,382.1 464.7,381.3 465.0,380.9 465.2,380.1 465.5,379.3 465.7,378.9 466.0,378.1 466.2,377.4 466.4,376.6 466.7,375.8 466.9,375.0 467.2,373.8 467.4,373.0 467.7,372.2 467.9,371.1 468.2,370.3 468.4,369.1 468.6,368.3 468.9,367.1 469.1,365.9 469.4,364.7 469.6,363.6 469.9,362.4 470.1,361.2 470.4,360.0 470.6,358.8 470.8,357.3 471.1,356.1 471.3,354.5 471.6,353.3 471.8,351.7 472.1,350.2 472.3,349.0 472.6,347.4 472.8,345.8 473.0,344.3 473.3,342.7 473.5,340.7 473.8,339.1 474.0,337.6 474.3,335.6 474.5,334.0 474.7,332.0 475.0,330.1 475.2,328.1 475.5,326.1 475.7,324.2 476.0,322.2 476.2,320.2 476.5,318.2 476.7,316.3 476.9,313.9 477.2,311.9 477.4,309.6 477.7,307.2 477.9,304.8 478.2,302.9 478.4,300.5 478.7,297.7 478.9,295.4 479.1,293.0 479.4,290.6 479.6,287.9 479.9,285.5 480.1,282.8 480.4,280.0 480.6,277.2 480.8,274.5 481.1,271.7 481.3,269.0 481.6,266.2 481.8,263.1 482.1,260.3 482.3,257.1 482.6,254.0 482.8,251.2 483.0,248.1 483.3,244.9 483.5,241.8 483.8,238.2 484.0,235.1 484.3,231.9 484.5,228.4 484.8,224.8 485.0,221.7 485.2,218.1 485.5,214.6 485.7,211.0 486.0,207.1 486.2,203.5 486.5,200.0 486.7,196.1 486.9,192.5 487.2,188.6 487.4,184.6 487.7,180.7 487.9,176.7 488.2,172.8 488.4,168.9 488.7,164.9 488.9,160.6 489.1,156.6 489.4,152.3 489.6,148.4 489.9,144.0 490.1,139.7 490.4,135.8 490.6,131.4 490.8,127.1 491.1,122.8 491.3,118.4 491.6,114.1 491.8,109.7 492.1,105.4 492.3,101.5 492.6,97.1 492.8,92.8 493.0,88.5 493.3,84.1 493.5,80.2 493.8,75.8 494.0,71.9 494.3,68.0 494.5,64.0 494.8,60.1 495.0,56.1 495.2,52.6 495.5,49.0 495.7,45.5 496.0,42.0 496.2,38.8 496.5,35.6 496.7,32.9 496.9,29.7 497.2,27.4 497.4,25.0 497.7,22.6 497.9,20.7 498.2,18.7 498.4,17.1 498.7,15.5 498.9,14.4 499.1,13.6 499.4,12.8 499.6,12.4 499.9,12.0 500.1,12.0 500.4,12.4 500.6,12.8 500.9,13.6 501.1,14.4 501.3,15.5 501.6,17.1 501.8,18.7 502.1,20.7 502.3,22.6 502.6,25.0 502.8,27.4 503.1,29.7 503.3,32.9 503.5,35.6 503.8,38.8 504.0,42.0 504.3,45.5 504.5,49.0 504.8,52.6 505.0,56.1 505.2,60.1 505.5,64.0 505.7,68.0 506.0,71.9 506.2,75.8 506.5,80.2 506.7,84.1 507.0,88.5 507.2,92.8 507.4,97.1 507.7,101.5 507.9,105.4 508.2,109.7 508.4,114.1 508.7,118.4 508.9,122.8 509.2,127.1 509.4,131.4 509.6,135.8 509.9,139.7 510.1,144.0 510.4,148.4 510.6,152.3 510.9,156.6 511.1,160.6 511.3,164.9 511.6,168.9 511.8,172.8 512.1,176.7 512.3,180.7 512.6,184.6 512.8,188.6 513.1,192.5 513.3,196.1 513.5,200.0 513.8,203.5 514.0,207.1 514.3,211.0 514.5,214.6 514.8,218.1 515.0,221.7 515.2,224.8 515.5,228.4 515.7,231.9 516.0,235.1 516.2,238.2 516.5,241.8 516.7,244.9 517.0,248.1 517.2,251.2 517.4,254.0 517.7,257.1 517.9,260.3 518.2,263.1 518.4,266.2 518.7,269.0 518.9,271.7 519.2,274.5 519.4,277.2 519.6,280.0 519.9,282.8 520.1,285.5 520.4,287.9 520.6,290.6 520.9,293.0 521.1,295.4 521.3,297.7 521.6,300.5 521.8,302.9 522.1,304.8 522.3,307.2 522.6,309.6 522.8,311.9 523.1,313.9 523.3,316.3 523.5,318.2 523.8,320.2 524.0,322.2 524.3,324.2 524.5,326.1 524.8,328.1 525.0,330.1 525.3,332.0 525.5,334.0 525.7,335.6 526.0,337.6 526.2,339.1 526.5,340.7 526.7,342.7 527.0,344.3 527.2,345.8 527.4,347.4 527.7,349.0 527.9,350.2 528.2,351.7 528.4,353.3 528.7,354.5 528.9,356.1 529.2,357.3 529.4,358.8 529.6,360.0 529.9,361.2 530.1,362.4 530.4,363.6 530.6,364.7 530.9,365.9 531.1,367.1 531.4,368.3 531.6,369.1 531.8,370.3 532.1,371.1 532.3,372.2 532.6,373.0 532.8,373.8 533.1,375.0 533.3,375.8 533.6,376.6 533.8,377.4 534.0,378.1 534.3,378.9 534.5,379.3 534.8,380.1 535.0,380.9 535.3,381.3 535.5,382.1 535.7,382.5 536.0,383.3 536.2,383.7 536.5,384.1 536.7,384.5 537.0,384.8 537.2,385.2 537.5,385.6 537.7,386.0 537.9,386.4 538.2,386.8 538.4,386.8 538.7,387.2 538.9,387.2 539.2,387.6 539.4,387.6 539.6,388.0 539.9,388.0 540.1,388.0 540.4,388.0 540.6,388.0 540.9,388.0 541.1,388.0 541.4,388.0 541.6,388.0 541.8,387.6 542.1,387.6 542.3,387.6 542.6,387.2 542.8,386.8 543.1,386.8 543.3,386.4 543.6,386.0 543.8,385.6 544.0,385.6 544.3,385.2 544.5,384.8 544.8,384.1 545.0,383.7 545.3,383.3 545.5,382.9 545.8,382.1 546.0,381.7 546.2,380.9 546.5,380.5 546.7,379.7 547.0,378.9 547.2,378.1 547.5,377.4 547.7,376.6 547.9,375.8 548.2,375.0 548.4,374.2 548.7,373.4 548.9,372.2 549.2,371.4 549.4,370.3 549.7,369.5 549.9,368.3 550.2,367.5 550.4,366.3 550.7,365.1 550.9,364.0 551.1,362.8 551.4,361.6 551.6,360.4 551.9,358.8 552.1,357.7 552.4,356.5 552.6,354.9 552.9,353.7 553.1,352.1 553.3,350.6 553.6,349.4 553.8,347.8 554.1,346.2 554.3,344.6 554.6,343.1 554.8,341.1 555.0,339.5 555.3,337.9 555.5,336.0 555.8,334.4 556.0,332.4 556.3,330.5 556.5,328.9 556.8,326.9 557.0,324.9 557.2,323.0 557.5,321.0 557.7,318.6 558.0,316.7 558.2,314.7 558.5,312.3 558.7,310.0 559.0,308.0 559.2,305.6 559.4,303.3 559.7,300.9 559.9,298.5 560.2,296.2 560.4,293.8 560.7,291.0 560.9,288.7 561.1,285.9 561.4,283.6 561.6,280.8 561.9,278.0 562.1,275.3 562.4,272.5 562.6,269.8 562.9,266.6 563.1,263.8 563.3,261.1 563.6,257.9 563.8,254.8 564.1,252.0 564.3,248.9 564.6,245.7 564.8,242.6 565.1,239.0 565.3,235.9 565.5,232.7 565.8,229.2 566.0,225.6 566.3,222.5 566.5,218.9 566.8,215.4 567.0,211.8 567.2,208.3 567.5,204.3 567.7,200.8 568.0,197.2 568.2,193.3 568.5,189.4 568.7,185.4 569.0,181.9 569.2,177.9 569.4,174.0 569.7,169.7 569.9,165.7 570.2,161.8 570.4,157.4 570.7,153.5 570.9,149.2 571.2,145.2 571.4,140.9 571.6,136.5 571.9,132.2 572.1,128.3 572.4,123.9 572.6,119.6 572.9,115.3 573.1,110.9 573.3,106.6 573.6,102.3 573.8,97.9 574.1,94.0 574.3,89.6 574.6,85.3 574.8,81.0 575.1,77.0 575.3,73.1 575.5,68.8 575.8,64.8 576.0,60.9 576.3,57.3 576.5,53.4 576.8,49.8 577.0,46.3 577.3,42.7 577.5,39.6 577.7,36.4 578.0,33.3 578.2,30.5 578.5,27.8 578.7,25.4 579.0,23.0 579.2,21.1 579.4,19.1 579.7,17.5 579.9,15.9 580.2,14.8 580.4,13.6 580.7,12.8 580.9,12.4 581.2,12.0 581.4,12.0 581.6,12.0 581.9,12.8 582.1,13.2 582.4,14.0 582.6,15.2 582.9,16.7 583.1,18.3 583.4,19.9 583.6,22.2 583.8,24.2 584.1,26.6 584.3,29.3 584.6,32.1 584.8,34.9 585.1,38.0 585.3,41.2 585.5,44.7 585.8,47.9 586.0,51.8 586.3,55.4 586.5,58.9 586.8,62.8 587.0,66.8 587.3,70.7 587.5,75.1 587.7,79.0 588.0,83.3 588.2,87.3 588.5,91.6 588.7,95.9 589.0,100.3 589.2,104.6 589.5,109.0 589.7,113.3 589.9,117.2 590.2,121.6 590.4,125.9 590.7,130.2 590.9,134.6 591.2,138.9 591.4,142.9 591.6,147.2 591.9,151.5 592.1,155.5 592.4,159.8 592.6,163.7 592.9,167.7 593.1,171.6 593.4,176.0 593.6,179.9 593.8,183.8 594.1,187.4 594.3,191.3 594.6,195.3 594.8,198.8 595.1,202.8 595.3,206.3 595.6,209.9 595.8,213.4 596.0,216.9 596.3,220.5 596.5,224.0 596.8,227.6 597.0,230.7 597.3,234.3 597.5,237.4 597.7,241.0 598.0,244.1 598.2,247.3 598.5,250.4 598.7,253.6 599.0,256.4 599.2,259.5 599.5,262.3 599.7,265.4 599.9,268.2 600.2,270.9 600.4,273.7 600.7,276.5 600.9,279.2 601.2,282.0 601.4,284.7 601.7,287.5 601.9,289.9 602.1,292.2 602.4,295.0 602.6,297.4 602.9,299.7 603.1,302.1 603.4,304.4 603.6,306.8 603.8,309.2 604.1,311.1 604.3,313.5 604.6,315.5 604.8,317.8 605.1,319.8 605.3,321.8 605.6,323.8 605.8,325.7 606.0,327.7 606.3,329.7 606.5,331.6 606.8,333.2 607.0,335.2 607.3,336.8 607.5,338.7 607.8,340.3 608.0,341.9 608.2,343.9 608.5,345.4 608.7,347.0 609.0,348.6 609.2,349.8 609.5,351.3 609.7,352.9 609.9,354.1 610.2,355.7 610.4,356.9 610.7,358.4 610.9,359.6 611.2,360.8 611.4,362.0 611.7,363.2 611.9,364.4 612.1,365.5 612.4,366.7 612.6,367.9 612.9,369.1 613.1,369.9 613.4,371.1 613.6,371.8 613.9,373.0 614.1,373.8 614.3,374.6 614.6,375.4 614.8,376.2 615.1,377.0 615.3,377.8 615.6,378.5 615.8,379.3 616.0,380.1 616.3,380.5 616.5,381.3 616.8,381.7 617.0,382.5 617.3,382.9 617.5,383.7 617.8,384.1 618.0,384.5 618.2,384.8 618.5,385.2 618.7,385.6 619.0,386.0 619.2,386.4 619.5,386.4 619.7,386.8 620.0,387.2 620.2,387.2 620.4,387.6 620.7,387.6 620.9,388.0 621.2,388.0 621.4,388.0 621.7,388.0 621.9,388.0 622.1,388.0 622.4,388.0 622.6,388.0 622.9,388.0 623.1,387.6 623.4,387.6 623.6,387.6 623.9,387.2 624.1,387.2 624.3,386.8 624.6,386.4 624.8,386.4 625.1,386.0 625.3,385.6 625.6,385.2 625.8,384.8 626.1,384.5 626.3,383.7 626.5,383.3 626.8,382.9 627.0,382.5 627.3,381.7 627.5,381.3 627.8,380.5 628.0,379.7 628.2,379.3 628.5,378.5 628.7,377.8 629.0,377.0 629.2,376.2 629.5,375.4 629.7,374.6 630.0,373.4 630.2,372.6 630.4,371.8 630.7,370.7 630.9,369.9 631.2,368.7 631.4,367.5 631.7,366.3 631.9,365.5 632.2,364.4 632.4,363.2 632.6,362.0 632.9,360.4 633.1,359.2 633.4,358.0 633.6,356.9 633.9,355.3 634.1,354.1 634.3,352.5 634.6,351.0 634.8,349.8 635.1,348.2 635.3,346.6 635.6,345.0 635.8,343.5 636.1,341.5 636.3,339.9 636.5,338.3 636.8,336.4 637.0,334.8 637.3,332.8 637.5,331.2 637.8,329.3 638.0,327.3 638.3,325.3 638.5,323.4 638.7,321.4 639.0,319.4 639.2,317.1 639.5,315.1 639.7,312.7 640.0,310.8 640.2,308.4 640.4,306.0 640.7,304.1 640.9,301.7 641.2,299.3 641.4,296.6 641.7,294.2 641.9,291.8 642.2,289.1 642.4,286.7 642.6,283.9 642.9,281.2 643.1,278.8 643.4,276.1 643.6,273.3 643.9,270.5 644.1,267.4 644.4,264.6 644.6,261.9 644.8,258.7 645.1,255.6 645.3,252.8 645.6,249.7 645.8,246.5 646.1,243.4 646.3,239.8 646.6,236.7 646.8,233.5 647.1,230.0 647.3,226.8 647.5,223.3 647.8,219.7 648.0,216.2 648.3,212.6 648.5,209.1 648.8,205.5 649.0,201.6 649.3,198.0 649.5,194.1 649.7,190.5 650.0,186.6 650.2,182.7 650.5,178.7 650.7,174.8 651.0,170.8 651.2,166.9 651.5,162.6 651.7,158.6 651.9,154.7 652.2,150.3 652.4,146.0 652.7,142.1 652.9,137.7 653.2,133.4 653.4,129.1 653.6,125.1 653.9,120.8 654.1,116.4 654.4,112.1 654.6,107.8 654.9,103.4 655.1,99.1 655.4,94.8 655.6,90.4 655.8,86.5 656.1,82.2 656.3,78.2 656.6,73.9 656.8,69.9 657.1,66.0 657.3,62.1 657.6,58.1 657.8,54.6 658.0,50.6 658.3,47.1 658.5,43.5 658.8,40.4 659.0,37.2 659.3,34.1 659.5,31.3 659.7,28.6 660.0,26.2 660.2,23.8 660.5,21.5 660.7,19.5 661.0,17.9 661.2,16.3 661.5,15.2 661.7,14.0 661.9,13.2 662.2,12.4 662.4,12.0 662.7,12.0 662.9,12.0 663.2,12.4 663.4,13.2 663.7,14.0 663.9,15.2 664.1,16.3 664.4,17.9 664.6,19.5 664.9,21.5 665.1,23.8 665.4,26.2 665.6,28.6 665.8,31.3 666.1,34.1 666.3,37.2 666.6,40.4 666.8,43.5 667.1,47.1 667.3,50.6 667.6,54.6 667.8,58.1 668.0,62.1 668.3,66.0 668.5,69.9 668.8,73.9 669.0,78.2 669.3,82.2 669.5,86.5 669.8,90.4 670.0,94.8 670.2,99.1 670.5,103.4 670.7,107.8 671.0,112.1 671.2,116.4 671.5,120.8 671.7,125.1 671.9,129.1 672.2,133.4 672.4,137.7 672.7,142.1 672.9,146.0 673.2,150.3 673.4,154.7 673.7,158.6 673.9,162.6 674.1,166.9 674.4,170.8 674.6,174.8 674.9,178.7 675.1,182.7 675.4,186.6 675.6,190.5 675.9,194.1 676.1,198.0 676.3,201.6 676.6,205.5 676.8,209.1 677.1,212.6 677.3,216.2 677.6,219.7 677.8,223.3 678.0,226.8 678.3,230.0 678.5,233.5 678.8,236.7 679.0,239.8 679.3,243.4 679.5,246.5 679.8,249.7 680.0,252.8 680.2,255.6 680.5,258.7 680.7,261.9 681.0,264.6 681.2,267.4 681.5,270.5 681.7,273.3 682.0,276.1 682.2,278.8 682.4,281.2 682.7,283.9 682.9,286.7 683.2,289.1 683.4,291.8 683.7,294.2 683.9,296.6 684.1,299.3 684.4,301.7 684.6,304.1 684.9,306.0 685.1,308.4 685.4,310.8 685.6,312.7 685.9,315.1 686.1,317.1 686.3,319.4 686.6,321.4 686.8,323.4 687.1,325.3 687.3,327.3 687.6,329.3 687.8,331.2 688.1,332.8 688.3,334.8 688.5,336.4 688.8,338.3 689.0,339.9 689.3,341.5 689.5,343.5 689.8,345.0 690.0,346.6 690.2,348.2 690.5,349.8 690.7,351.0 691.0,352.5 691.2,354.1 691.5,355.3 691.7,356.9 692.0,358.0 692.2,359.2 692.4,360.4 692.7,362.0 692.9,363.2 693.2,364.4 693.4,365.5 693.7,366.3 693.9,367.5 694.2,368.7 694.4,369.9 694.6,370.7 694.9,371.8 695.1,372.6 695.4,373.4 695.6,374.6 695.9,375.4 696.1,376.2 696.3,377.0 696.6,377.8 696.8,378.5 697.1,379.3 697.3,379.7 697.6,380.5 697.8,381.3 698.1,381.7 698.3,382.5 698.5,382.9 698.8,383.3 699.0,383.7 699.3,384.5 699.5,384.8 699.8,385.2 700.0,385.6 700.3,386.0 700.5,386.4 700.7,386.4 701.0,386.8 701.2,387.2 701.5,387.2 701.7,387.6 702.0,387.6 702.2,387.6 702.4,388.0 702.7,388.0 702.9,388.0 703.2,388.0 703.4,388.0 703.7,388.0 703.9,388.0 704.2,388.0 704.4,388.0 704.6,387.6 704.9,387.6 705.1,387.2 705.4,387.2 705.6,386.8 705.9,386.4 706.1,386.4 706.4,386.0 706.6,385.6 706.8,385.2 707.1,384.8 707.3,384.5 707.6,384.1 707.8,383.7 708.1,382.9 708.3,382.5 708.5,381.7 708.8,381.3 709.0,380.5 709.3,380.1 709.5,379.3 709.8,378.5 710.0,377.8 710.3,377.0 710.5,376.2 710.7,375.4 711.0,374.6 711.2,373.8 711.5,373.0 711.7,371.8 712.0,371.1 712.2,369.9 712.5,369.1 712.7,367.9 712.9,366.7 713.2,365.5 713.4,364.4 713.7,363.2 713.9,362.0 714.2,360.8 714.4,359.6 714.6,358.4 714.9,356.9 715.1,355.7 715.4,354.1 715.6,352.9 715.9,351.3 716.1,349.8 716.4,348.6 716.6,347.0 716.8,345.4 717.1,343.9 717.3,341.9 717.6,340.3 717.8,338.7 718.1,336.8 718.3,335.2 718.6,333.2 718.8,331.6 719.0,329.7 719.3,327.7 719.5,325.7 719.8,323.8 720.0,321.8 720.3,319.8 720.5,317.8 720.7,315.5 721.0,313.5 721.2,311.1 721.5,309.2 721.7,306.8 722.0,304.4 722.2,302.1 722.5,299.7 722.7,297.4 722.9,295.0 723.2,292.2 723.4,289.9 723.7,287.5 723.9,284.7 724.2,282.0 724.4,279.2 724.7,276.5 724.9,273.7 725.1,270.9 725.4,268.2 725.6,265.4 725.9,262.3 726.1,259.5 726.4,256.4 726.6,253.6 726.8,250.4 727.1,247.3 727.3,244.1 727.6,241.0 727.8,237.4 728.1,234.3 728.3,230.7 728.6,227.6 728.8,224.0 729.0,220.5 729.3,216.9 729.5,213.4 729.8,209.9 730.0,206.3 730.3,202.8 730.5,198.8 730.8,195.3 731.0,191.3 731.2,187.4 731.5,183.8 731.7,179.9 732.0,176.0 732.2,171.6 732.5,167.7 732.7,163.7 732.9,159.8 733.2,155.5 733.4,151.5 733.7,147.2 733.9,142.9 734.2,138.9 734.4,134.6 734.7,130.2 734.9,125.9 735.1,121.6 735.4,117.2 735.6,113.3 735.9,109.0 736.1,104.6 736.4,100.3 736.6,95.9 736.9,91.6 737.1,87.3 737.3,83.3 737.6,79.0 737.8,75.1 738.1,70.7 738.3,66.8 738.6,62.8 738.8,58.9 739.0,55.4 739.3,51.8 739.5,47.9 739.8,44.7 740.0,41.2 740.3,38.0 740.5,34.9 740.8,32.1 741.0,29.3 741.2,26.6 741.5,24.2 741.7,22.2 742.0,19.9 742.2,18.3 742.5,16.7 742.7,15.2 743.0,14.0 743.2,13.2 743.4,12.8 743.7,12.0 743.9,12.0 744.2,12.0 744.4,12.4 744.7,12.8 744.9,13.6 745.2,14.8 745.4,15.9 745.7,17.5 745.9,19.1 746.1,21.1 746.4,23.0 746.6,25.4 746.9,27.8 747.1,30.5 747.4,33.3 747.6,36.4 747.9,39.6 748.1,42.7 748.3,46.3 748.6,49.8 748.8,53.4 749.1,57.3 749.3,60.9 749.6,64.8 749.8,68.8 750.1,73.1 750.3,77.0 750.5,81.0 750.8,85.3 751.0,89.6 751.3,94.0 751.5,97.9 751.8,102.3 752.0,106.6 752.2,110.9 752.5,115.3 752.7,119.6 753.0,123.9 753.2,128.3 753.5,132.2 753.7,136.5 754.0,140.9 754.2,145.2 754.4,149.2 754.7,153.5 754.9,157.4 755.2,161.8 755.4,165.7 755.7,169.7 755.9,174.0 756.2,177.9 756.4,181.9 756.6,185.4 756.9,189.4 757.1,193.3 757.4,197.2 757.6,200.8 757.9,204.3 758.1,208.3 758.3,211.8 758.6,215.4 758.8,218.9 759.1,222.5 759.3,225.6 759.6,229.2 759.8,232.7 760.1,235.9 760.3,239.0 760.5,242.6 760.8,245.7 761.0,248.9 761.3,252.0 761.5,254.8 761.8,257.9 762.0,261.1 762.3,263.8 762.5,266.6 762.7,269.8 763.0,272.5 763.2,275.3 763.5,278.0 763.7,280.8 764.0,283.6 764.2,285.9 764.4,288.7 764.7,291.0 764.9,293.8 765.2,296.2 765.4,298.5 765.7,300.9 765.9,303.3 766.2,305.6 766.4,308.0 766.6,310.0 766.9,312.3 767.1,314.7 767.4,316.7 767.6,318.6 767.9,321.0 768.1,323.0 768.4,324.9 768.6,326.9 768.8,328.9 769.1,330.5 769.3,332.4 769.6,334.4 769.8,336.0 770.1,337.9 770.3,339.5 770.5,341.1 770.8,343.1 771.0,344.6 771.3,346.2 771.5,347.8 771.8,349.4 772.0,350.6 772.3,352.1 772.5,353.7 772.7,354.9 773.0,356.5 773.2,357.7 773.5,358.8 773.7,360.4 774.0,361.6 774.2,362.8 774.5,364.0 774.7,365.1 774.9,366.3 775.2,367.5 775.4,368.3 775.7,369.5 775.9,370.3 776.2,371.4 776.4,372.2 776.6,373.4 776.9,374.2 777.1,375.0 777.4,375.8 777.6,376.6 777.9,377.4 778.1,378.1 778.4,378.9 778.6,379.7 778.8,380.5 779.1,380.9 779.3,381.7 779.6,382.1 779.8,382.9 780.1,383.3 780.3,383.7 780.6,384.1 780.8,384.8 781.0,385.2 781.3,385.6 781.5,385.6 781.8,386.0 782.0,386.4 782.3,386.8 782.5,386.8 782.7,387.2 783.0,387.6 783.2,387.6 783.5,387.6 783.7,388.0 784.0,388.0 784.2,388.0 784.5,388.0 784.7,388.0 784.9,388.0 785.2,388.0 785.4,388.0 785.7,388.0 785.9,387.6 786.2,387.6 786.4,387.2 786.7,387.2 786.9,386.8 787.1,386.8 787.4,386.4 787.6,386.0 787.9,385.6 788.1,385.2 788.4,384.8 788.6,384.5 788.8,384.1 789.1,383.7 789.3,383.3 789.6,382.5 789.8,382.1 790.1,381.3 790.3,380.9 790.6,380.1 790.8,379.3 791.0,378.9 791.3,378.1 791.5,377.4 791.8,376.6 792.0,375.8 792.3,375.0 792.5,373.8 792.8,373.0 793.0,372.2 793.2,371.1 793.5,370.3 793.7,369.1 794.0,368.3 794.2,367.1 794.5,365.9 794.7,364.7 794.9,363.6 795.2,362.4 795.4,361.2 795.7,360.0 795.9,358.8 796.2,357.3 796.4,356.1 796.7,354.5 796.9,353.3 797.1,351.7 797.4,350.2 797.6,349.0 797.9,347.4 798.1,345.8 798.4,344.3 798.6,342.7 798.9,340.7 799.1,339.1 799.3,337.6 799.6,335.6 799.8,334.0 800.1,332.0 800.3,330.1 800.6,328.1 800.8,326.1 801.0,324.2 801.3,322.2 801.5,320.2 801.8,318.2 802.0,316.3 802.3,313.9 802.5,311.9 802.8,309.6 803.0,307.2 803.2,304.8 803.5,302.9 803.7,300.5 804.0,297.7 804.2,295.4 804.5,293.0 804.7,290.6 805.0,287.9 805.2,285.5 805.4,282.8 805.7,280.0 805.9,277.2 806.2,274.5 806.4,271.7 806.7,269.0 806.9,266.2 807.1,263.1 807.4,260.3 807.6,257.1 807.9,254.0 808.1,251.2 808.4,248.1 808.6,244.9 808.9,241.8 809.1,238.2 809.3,235.1 809.6,231.9 809.8,228.4 810.1,224.8 810.3,221.7 810.6,218.1 810.8,214.6 811.1,211.0 811.3,207.1 811.5,203.5 811.8,200.0 812.0,196.1 812.3,192.5 812.5,188.6 812.8,184.6 813.0,180.7 813.2,176.7 813.5,172.8 813.7,168.9 814.0,164.9 814.2,160.6 814.5,156.6 814.7,152.3 815.0,148.4 815.2,144.0 815.4,139.7 815.7,135.8 815.9,131.4 816.2,127.1 816.4,122.8 816.7,118.4 816.9,114.1 817.2,109.7 817.4,105.4 817.6,101.5 817.9,97.1 818.1,92.8 818.4,88.5 818.6,84.1 818.9,80.2 819.1,75.8 819.3,71.9 819.6,68.0 819.8,64.0 820.1,60.1 820.3,56.1 820.6,52.6 820.8,49.0 821.1,45.5 821.3,42.0 821.5,38.8 821.8,35.6 822.0,32.9 822.3,29.7 822.5,27.4 822.8,25.0 823.0,22.6 823.3,20.7 823.5,18.7 823.7,17.1 824.0,15.5 824.2,14.4 824.5,13.6 824.7,12.8 825.0,12.4 825.2,12.0 825.4,12.0 825.7,12.4 825.9,12.8 826.2,13.6 826.4,14.4 826.7,15.5 826.9,17.1 827.2,18.7 827.4,20.7 827.6,22.6 827.9,25.0 828.1,27.4 828.4,29.7 828.6,32.9 828.9,35.6 829.1,38.8 829.4,42.0 829.6,45.5 829.8,49.0 830.1,52.6 830.3,56.1 830.6,60.1 830.8,64.0 831.1,68.0 831.3,71.9 831.5,75.8 831.8,80.2 832.0,84.1 832.3,88.5 832.5,92.8 832.8,97.1 833.0,101.5 833.3,105.4 833.5,109.7 833.7,114.1 834.0,118.4 834.2,122.8 834.5,127.1 834.7,131.4 835.0,135.8 835.2,139.7 835.5,144.0 835.7,148.4 835.9,152.3 836.2,156.6 836.4,160.6 836.7,164.9 836.9,168.9 837.2,172.8 837.4,176.7 837.6,180.7 837.9,184.6 838.1,188.6 838.4,192.5 838.6,196.1 838.9,200.0 839.1,203.5 839.4,207.1 839.6,211.0 839.8,214.6 840.1,218.1 840.3,221.7 840.6,224.8 840.8,228.4 841.1,231.9 841.3,235.1 841.6,238.2 841.8,241.8 842.1,244.9 842.3,248.1 842.6,251.2 842.8,254.0 843.0,257.1 843.3,260.3 843.5,263.1 843.8,266.2 844.0,269.0 844.3,271.7 844.5,274.5 844.7,277.2 845.0,280.0 845.2,282.8 845.5,285.5 845.7,287.9 846.0,290.6 846.2,293.0 846.5,295.4 846.7,297.7 846.9,300.5 847.2,302.9 847.4,304.8 847.7,307.2 847.9,309.6 848.2,311.9 848.4,313.9 848.7,316.3 848.9,318.2 849.1,320.2 849.4,322.2 849.6,324.2 849.9,326.1 850.1,328.1 850.4,330.1 850.6,332.0 850.8,334.0 851.1,335.6 851.3,337.6 851.6,339.1 851.8,340.7 852.1,342.7 852.3,344.3 852.6,345.8 852.8,347.4 853.0,349.0 853.3,350.2 853.5,351.7 853.8,353.3 854.0,354.5 854.3,356.1 854.5,357.3 854.8,358.8 855.0,360.0 855.2,361.2 855.5,362.4 855.7,363.6 856.0,364.7 856.2,365.9 856.5,367.1 856.7,368.3 856.9,369.1 857.2,370.3 857.4,371.1 857.7,372.2 857.9,373.0 858.2,373.8 858.4,375.0 858.7,375.8 858.9,376.6 859.1,377.4 859.4,378.1 859.6,378.9 859.9,379.3 860.1,380.1 860.4,380.9 860.6,381.3 860.9,382.1 861.1,382.5 861.3,383.3 861.6,383.7 861.8,384.1 862.1,384.5 862.3,384.8 862.6,385.2 862.8,385.6 863.0,386.0 863.3,386.4 863.5,386.8 863.8,386.8 864.0,387.2 864.3,387.2 864.5,387.6 864.8,387.6 865.0,388.0 865.2,388.0 865.5,388.0 865.7,388.0 866.0,388.0 866.2,388.0 866.5,388.0 866.7,388.0 867.0,388.0 867.2,387.6 867.4,387.6 867.7,387.6 867.9,387.2 868.2,386.8 868.4,386.8 868.7,386.4 868.9,386.0 869.1,385.6 869.4,385.6 869.6,385.2 869.9,384.8 870.1,384.1 870.4,383.7 870.6,383.3 870.9,382.9 871.1,382.1 871.3,381.7 871.6,380.9 871.8,380.5 872.1,379.7 872.3,378.9 872.6,378.1 872.8,377.4 873.1,376.6 873.3,375.8 873.5,375.0 873.8,374.2 874.0,373.4 874.3,372.2 874.5,371.4 874.8,370.3 875.0,369.5 875.2,368.3 875.5,367.5 875.7,366.3 876.0,365.1 876.2,364.0 876.5,362.8 876.7,361.6 877.0,360.4 877.2,358.8 877.4,357.7 877.7,356.5 877.9,354.9 878.2,353.7 878.4,352.1 878.7,350.6 878.9,349.4 879.2,347.8 879.4,346.2 879.6,344.6 879.9,343.1 880.1,341.1 880.4,339.5 880.6,337.9 880.9,336.0 881.1,334.4 881.3,332.4 881.6,330.5 881.8,328.9 882.1,326.9 882.3,324.9 882.6,323.0 882.8,321.0 883.1,318.6 883.3,316.7 883.5,314.7 883.8,312.3 884.0,310.0 884.3,308.0 884.5,305.6 884.8,303.3 885.0,300.9 885.3,298.5 885.5,296.2 885.7,293.8 886.0,291.0 886.2,288.7 886.5,285.9 886.7,283.6 887.0,280.8 887.2,278.0 887.4,275.3 887.7,272.5 887.9,269.8 888.2,266.6 888.4,263.8 888.7,261.1 888.9,257.9 889.2,254.8 889.4,252.0 889.6,248.9 889.9,245.7 890.1,242.6 890.4,239.0 890.6,235.9 890.9,232.7 891.1,229.2 891.4,225.6 891.6,222.5 891.8,218.9 892.1,215.4 892.3,211.8 892.6,208.3 892.8,204.3 893.1,200.8 893.3,197.2 893.5,193.3 893.8,189.4 894.0,185.4 894.3,181.9 894.5,177.9 894.8,174.0 895.0,169.7 895.3,165.7 895.5,161.8 895.7,157.4 896.0,153.5 896.2,149.2 896.5,145.2 896.7,140.9 897.0,136.5 897.2,132.2 897.5,128.3 897.7,123.9 897.9,119.6 898.2,115.3 898.4,110.9 898.7,106.6 898.9,102.3 899.2,97.9 899.4,94.0 899.6,89.6 899.9,85.3 900.1,81.0 900.4,77.0 900.6,73.1 900.9,68.8 901.1,64.8 901.4,60.9 901.6,57.3 901.8,53.4 902.1,49.8 902.3,46.3 902.6,42.7 902.8,39.6 903.1,36.4 903.3,33.3 903.6,30.5 903.8,27.8 904.0,25.4 904.3,23.0 904.5,21.1 904.8,19.1 905.0,17.5 905.3,15.9 905.5,14.8 905.7,13.6 906.0,12.8 906.2,12.4 906.5,12.0 906.7,12.0 907.0,12.0 907.2,12.8 907.5,13.2 907.7,14.0 907.9,15.2 908.2,16.7 908.4,18.3 908.7,19.9 908.9,22.2 909.2,24.2 909.4,26.6 909.7,29.3 909.9,32.1 910.1,34.9 910.4,38.0 910.6,41.2 910.9,44.7 911.1,47.9 911.4,51.8 911.6,55.4 911.8,58.9 912.1,62.8 912.3,66.8 912.6,70.7 912.8,75.1 913.1,79.0 913.3,83.3 913.6,87.3 913.8,91.6 914.0,95.9 914.3,100.3 914.5,104.6 914.8,109.0 915.0,113.3 915.3,117.2 915.5,121.6 915.8,125.9 916.0,130.2 916.2,134.6 916.5,138.9 916.7,142.9 917.0,147.2 917.2,151.5 917.5,155.5 917.7,159.8 917.9,163.7 918.2,167.7 918.4,171.6 918.7,176.0 918.9,179.9 919.2,183.8 919.4,187.4 919.7,191.3 919.9,195.3 920.1,198.8 920.4,202.8 920.6,206.3 920.9,209.9 921.1,213.4 921.4,216.9 921.6,220.5 921.9,224.0 922.1,227.6 922.3,230.7 922.6,234.3 922.8,237.4 923.1,241.0 923.3,244.1 923.6,247.3 923.8,250.4 924.0,253.6 924.3,256.4 924.5,259.5 924.8,262.3 925.0,265.4 925.3,268.2 925.5,270.9 925.8,273.7 926.0,276.5 926.2,279.2 926.5,282.0 926.7,284.7 927.0,287.5 927.2,289.9 927.5,292.2 927.7,295.0 928.0,297.4 928.2,299.7 928.4,302.1 928.7,304.4 928.9,306.8 929.2,309.2 929.4,311.1 929.7,313.5 929.9,315.5 930.1,317.8 930.4,319.8 930.6,321.8 930.9,323.8 931.1,325.7 931.4,327.7 931.6,329.7 931.9,331.6 932.1,333.2 932.3,335.2 932.6,336.8 932.8,338.7 933.1,340.3 933.3,341.9 933.6,343.9 933.8,345.4 934.1,347.0 934.3,348.6 934.5,349.8 934.8,351.3 935.0,352.9 935.3,354.1 935.5,355.7 935.8,356.9 936.0,358.4 936.2,359.6 936.5,360.8 936.7,362.0 937.0,363.2 937.2,364.4 937.5,365.5 937.7,366.7 938.0,367.9 938.2,369.1 938.4,369.9 938.7,371.1 938.9,371.8 939.2,373.0 939.4,373.8 939.7,374.6 939.9,375.4 940.2,376.2 940.4,377.0 940.7,377.8 940.9,378.5 941.2,379.3 941.4,380.1 941.6,380.5 941.9,381.3 942.1,381.7 942.4,382.5 942.6,382.9 942.9,383.7 943.1,384.1 943.3,384.5 943.6,384.8 943.8,385.2 944.1,385.6 944.3,386.0 944.6,386.4 944.8,386.4 945.1,386.8 945.3,387.2 945.5,387.2 945.8,387.6 946.0,387.6 946.3,388.0 946.5,388.0 946.8,388.0 947.0,388.0 947.3,388.0 947.5,388.0 947.7,388.0 948.0,388.0 948.2,388.0 948.5,387.6 948.7,387.6 949.0,387.6 949.2,387.2 949.4,387.2 949.7,386.8 949.9,386.4 950.2,386.4 950.4,386.0 950.7,385.6 950.9,385.2 951.2,384.8 951.4,384.5 951.6,383.7 951.9,383.3 952.1,382.9 952.4,382.5 952.6,381.7 952.9,381.3 953.1,380.5 953.4,379.7 953.6,379.3 953.8,378.5 954.1,377.8 954.3,377.0 954.6,376.2 954.8,375.4 955.1,374.6 955.3,373.4 955.5,372.6 955.8,371.8 956.0,370.7 956.3,369.9 956.5,368.7 956.8,367.5 957.0,366.3 957.3,365.5 957.5,364.4 957.7,363.2 958.0,362.0 958.2,360.4 958.5,359.2 958.7,358.0 959.0,356.9 959.2,355.3 959.5,354.1 959.7,352.5 959.9,351.0 960.2,349.8 960.4,348.2 960.7,346.6 960.9,345.0 961.2,343.5 961.4,341.5 961.6,339.9 961.9,338.3 962.1,336.4 962.4,334.8 962.6,332.8 962.9,331.2 963.1,329.3 963.4,327.3 963.6,325.3 963.8,323.4 964.1,321.4 964.3,319.4 964.6,317.1 964.8,315.1 965.1,312.7 965.3,310.8 965.6,308.4 965.8,306.0 966.0,304.1 966.3,301.7 966.5,299.3 966.8,296.6 967.0,294.2 967.3,291.8 967.5,289.1 967.7,286.7 968.0,283.9 968.2,281.2 968.5,278.8 968.7,276.1 969.0,273.3 969.2,270.5 969.5,267.4 969.7,264.6 969.9,261.9 970.2,258.7 970.4,255.6 970.7,252.8 970.9,249.7 971.2,246.5 971.4,243.4 971.7,239.8 971.9,236.7 972.1,233.5 972.4,230.0 972.6,226.8 972.9,223.3 973.1,219.7 973.4,216.2 973.6,212.6 973.8,209.1 974.1,205.5 974.3,201.6 974.6,198.0 974.8,194.1 975.1,190.5 975.3,186.6 975.6,182.7 975.8,178.7 976.0,174.8 976.3,170.8 976.5,166.9 976.8,162.6 977.0,158.6 977.3,154.7 977.5,150.3 977.8,146.0 978.0,142.1 978.2,137.7 978.5,133.4 978.7,129.1 979.0,125.1 979.2,120.8 979.5,116.4 979.7,112.1 979.9,107.8 980.2,103.4 980.4,99.1 980.7,94.8 980.9,90.4 981.2,86.5 981.4,82.2 981.7,78.2 981.9,73.9 982.1,69.9 982.4,66.0 982.6,62.1 982.9,58.1 983.1,54.6 983.4,50.6 983.6,47.1 983.9,43.5 984.1,40.4 984.3,37.2 984.6,34.1 984.8,31.3 985.1,28.6 985.3,26.2 985.6,23.8 985.8,21.5 986.0,19.5 986.3,17.9 986.5,16.3 986.8,15.2 987.0,14.0 987.3,13.2 987.5,12.4 987.8,12.0 988.0,12.0" fill="none" stroke="currentColor" stroke-width="3" stroke-linejoin="round" vector-effect="non-scaling-stroke"/>
</svg>
