<svg xmlns="http://www.w3.org/2000/svg" viewBox="0 0 1000 400" preserveAspectRatio="none">
<polyline points="12.0,200.0 12.2,200.0 12.5,200.0 12.7,200.0 13.0,200.0 13.2,200.0 13.5,200.0 13.7,200.0 14.0,200.0 14.2,200.0 14.5,200.0 14.7,200.0 15.0,200.0 15.2,200.0 15.4,200.0 15.7,200.0 15.9,200.0 16.2,200.0 16.4,200.0 16.7,200.0 16.9,200.0 17.2,200.0 17.4,200.0 17.7,200.0 17.9,200.0 18.1,200.0 18.4,200.0 18.6,200.0 18.9,200.0 19.1,200.0 19.4,200.0 19.6,200.0 19.9,276.5 20.1,117.5 20.4,196.8 20.6,281.9 20.9,286.7 21.1,200.7 21.3,162.8 21.6,191.8 21.8,388.0 22.1,236.9 22.3,257.8 22.6,266.4 22.8,291.9 23.1,186.4 23.3,267.1 23.6,209.2 23.8,262.6 24.1,247.1 24.3,301.9 24.5,201.3 24.8,246.2 25.0,213.7 25.3,283.9 25.5,239.8 25.8,119.0 26.0,220.5 26.3,170.2 26.5,156.8 26.8,275.4 27.0,207.0 27.3,184.6 27.5,213.7 27.7,155.8 28.0,221.9 28.2,180.5 28.5,282.2 28.7,261.9 29.0,189.0 29.2,120.7 29.5,181.8 29.7,239.9 30.0,200.8 30.2,105.3 30.4,168.7 30.7,206.0 30.9,87.9 31.2,251.4 31.4,145.9 31.7,309.4 31.9,234.2 32.2,140.3 32.4,252.1 32.7,194.2 32.9,282.4 33.2,190.1 33.4,268.4 33.6,158.2 33.9,68.4 34.1,241.5 34.4,153.2 34.6,270.8 34.9,155.5 35.1,166.8 35.4,231.0 35.6,63.4 35.9,149.1 36.1,208.7 36.4,232.8 36.6,219.3 36.8,237.9 37.1,248.7 37.3,246.5 37.6,243.4 37.8,218.6 38.1,89.6 38.3,275.2 38.6,232.1 38.8,134.8 39.1,192.7 39.3,303.5 39.5,93.0 39.8,233.5 40.0,166.2 40.3,256.3 40.5,213.2 40.8,235.3 41.0,152.7 41.3,244.4 41.5,164.4 41.8,183.4 42.0,271.5 42.3,177.1 42.5,233.5 42.7,302.5 43.0,234.8 43.2,102.4 43.5,144.4 43.7,224.8 44.0,193.8 44.2,275.2 44.5,240.9 44.7,204.4 45.0,255.7 45.2,231.0 45.5,158.9 45.7,142.8 45.9,147.8 46.2,141.1 46.4,70.0 46.7,210.9 46.9,320.3 47.2,210.7 47.4,305.4 47.7,135.7 47.9,214.2 48.2,237.8 48.4,279.4 48.6,246.2 48.9,193.7 49.1,140.0 49.4,190.1 49.6,180.4 49.9,157.4 50.1,158.2 50.4,239.5 50.6,146.7 50.9,203.0 51.1,199.9 51.4,233.5 51.6,295.3 51.8,288.3 52.1,213.2 52.3,247.6 52.6,227.7 52.8,149.6 53.1,209.1 53.3,96.4 53.6,71.6 53.8,232.0 54.1,248.9 54.3,182.2 54.6,242.0 54.8,205.5 55.0,231.4 55.3,240.6 55.5,288.8 55.8,201.1 56.0,260.0 56.3,138.7 56.5,170.4 56.8,169.6 57.0,152.5 57.3,219.0 57.5,196.8 57.8,236.6 58.0,196.5 58.2,108.5 58.5,181.4 58.7,202.7 59.0,189.1 59.2,180.0 59.5,171.0 59.7,190.9 60.0,149.3 60.2,230.3 60.5,235.0 60.7,224.1 60.9,219.8 61.2,156.6 61.4,157.6 61.7,211.6 61.9,171.2 62.2,245.6 62.4,214.4 62.7,248.7 62.9,193.9 63.2,259.6 63.4,176.1 63.7,215.7 63.9,203.3 64.1,178.6 64.4,186.7 64.6,131.5 64.9,202.6 65.1,215.7 65.4,154.9 65.6,199.8 65.9,139.3 66.1,175.1 66.4,246.3 66.6,224.4 66.9,238.3 67.1,229.5 67.3,209.1 67.6,233.6 67.8,195.7 68.1,193.5 68.3,221.8 68.6,249.7 68.8,213.0 69.1,193.3 69.3,209.1 69.6,158.4 69.8,125.7 70.0,169.3 70.3,193.0 70.5,217.7 70.8,154.1 71.0,201.4 71.3,197.9 71.5,173.9 71.8,218.6 72.0,112.9 72.3,219.1 72.5,250.0 72.8,216.2 73.0,212.0 73.2,178.4 73.5,196.2 73.7,336.8 74.0,189.8 74.2,175.6 74.5,118.9 74.7,228.5 75.0,217.1 75.2,195.2 75.5,200.1 75.7,190.9 76.0,121.7 76.2,254.3 76.4,248.3 76.7,205.1 76.9,174.1 77.2,187.8 77.4,158.0 77.7,275.6 77.9,236.4 78.2,231.0 78.4,145.9 78.7,205.6 78.9,270.9 79.1,190.9 79.4,161.0 79.6,233.3 79.9,205.3 80.1,212.2 80.4,190.3 80.6,225.6 80.9,175.4 81.1,200.8 81.4,265.9 81.6,198.5 81.9,299.0 82.1,197.9 82.3,284.9 82.6,174.8 82.8,183.0 83.1,187.7 83.3,168.9 83.6,231.6 83.8,205.8 84.1,189.2 84.3,260.8 84.6,198.8 84.8,187.2 85.1,217.2 85.3,167.9 85.5,204.1 85.8,178.3 86.0,159.6 86.3,287.2 86.5,211.2 86.8,260.7 87.0,162.9 87.3,210.5 87.5,200.3 87.8,151.2 88.0,195.0 88.3,174.2 88.5,166.1 88.7,259.3 89.0,165.4 89.2,197.9 89.5,210.0 89.7,168.9 90.0,162.7 90.2,234.4 90.5,222.9 90.7,171.6 91.0,131.1 91.2,206.1 91.4,249.2 91.7,190.6 91.9,206.3 92.2,194.1 92.4,217.7 92.7,159.6 92.9,268.3 93.2,205.7 93.4,219.0 93.7,219.3 93.9,192.6 94.2,213.1 94.4,254.4 94.6,191.3 94.9,213.2 95.1,189.1 95.4,211.8 95.6,151.9 95.9,156.5 96.1,191.8 96.4,220.0 96.6,234.4 96.9,199.2 97.1,198.4 97.4,187.5 97.6,170.7 97.8,214.2 98.1,143.4 98.3,215.3 98.6,185.2 98.8,193.3 99.1,114.5 99.3,117.3 99.6,208.9 99.8,190.4 100.1,203.6 100.3,170.6 100.5,195.5 100.8,210.9 101.0,178.5 101.3,122.2 101.5,250.4 101.8,80.8 102.0,222.6 102.3,123.4 102.5,229.2 102.8,240.4 103.0,187.8 103.3,226.4 103.5,173.6 103.7,170.2 104.0,190.9 104.2,190.0 104.5,284.3 104.7,216.3 105.0,190.7 105.2,195.5 105.5,174.5 105.7,178.4 106.0,283.5 106.2,129.0 106.5,268.1 106.7,213.6 106.9,183.4 107.2,202.4 107.4,178.9 107.7,170.8 107.9,199.0 108.2,212.6 108.4,245.9 108.7,175.1 108.9,201.8 109.2,175.5 109.4,132.9 109.6,243.6 109.9,160.4 110.1,191.3 110.4,260.6 110.6,214.2 110.9,165.9 111.1,252.3 111.4,235.0 111.6,231.3 111.9,226.0 112.1,199.4 112.4,241.2 112.6,202.9 112.8,154.4 113.1,200.9 113.3,186.2 113.6,221.1 113.8,224.0 114.1,166.6 114.3,155.3 114.6,186.1 114.8,240.0 115.1,206.9 115.3,248.1 115.6,169.0 115.8,176.0 116.0,295.1 116.3,167.2 116.5,226.9 116.8,220.3 117.0,252.2 117.3,245.5 117.5,167.8 117.8,198.2 118.0,214.8 118.3,212.0 118.5,264.1 118.8,213.6 119.0,195.1 119.2,187.5 119.5,178.2 119.7,201.9 120.0,150.0 120.2,160.1 120.5,159.5 120.7,227.3 121.0,266.0 121.2,221.0 121.5,240.6 121.7,205.5 121.9,195.8 122.2,175.9 122.4,202.5 122.7,217.7 122.9,286.8 123.2,257.4 123.4,196.8 123.7,252.9 123.9,211.3 124.2,201.1 124.4,190.0 124.7,215.5 124.9,182.7 125.1,152.2 125.4,224.0 125.6,209.2 125.9,201.3 126.1,219.4 126.4,153.9 126.6,198.0 126.9,194.2 127.1,161.6 127.4,216.7 127.6,184.7 127.9,200.4 128.1,191.1 128.3,224.0 128.6,164.4 128.8,226.0 129.1,231.2 129.3,202.6 129.6,252.5 129.8,159.3 130.1,223.1 130.3,212.8 130.6,173.2 130.8,232.5 131.0,243.6 131.3,203.3 131.5,159.4 131.8,193.9 132.0,217.2 132.3,224.5 132.5,176.8 132.8,229.2 133.0,160.0 133.3,208.4 133.5,250.8 133.8,156.9 134.0,231.2 134.2,214.4 134.5,149.0 134.7,213.6 135.0,218.8 135.2,213.6 135.5,237.9 135.7,222.3 136.0,195.2 136.2,201.9 136.5,135.8 136.7,203.6 137.0,200.2 137.2,210.5 137.4,185.7 137.7,223.8 137.9,211.8 138.2,188.5 138.4,201.8 138.7,192.0 138.9,181.4 139.2,170.3 139.4,159.5 139.7,206.8 139.9,168.1 140.1,200.2 140.4,195.6 140.6,241.7 140.9,184.0 141.1,223.9 141.4,210.0 141.6,170.4 141.9,221.9 142.1,185.9 142.4,182.1 142.6,173.8 142.9,170.0 143.1,183.4 143.3,203.0 143.6,215.5 143.8,177.0 144.1,179.5 144.3,198.2 144.6,201.8 144.8,213.4 145.1,158.4 145.3,190.1 145.6,176.1 145.8,180.9 146.1,168.6 146.3,198.7 146.5,149.6 146.8,185.0 147.0,211.1 147.3,163.7 147.5,183.8 147.8,193.0 148.0,231.5 148.3,139.2 148.5,175.6 148.8,216.5 149.0,214.5 149.3,217.7 149.5,189.4 149.7,201.8 150.0,221.0 150.2,186.4 150.5,176.1 150.7,214.2 151.0,199.9 151.2,196.3 151.5,205.5 151.7,239.5 152.0,212.8 152.2,218.8 152.4,201.4 152.7,171.4 152.9,171.5 153.2,184.9 153.4,217.7 153.7,187.1 153.9,214.1 154.2,211.8 154.4,192.8 154.7,211.8 154.9,170.2 155.2,206.1 155.4,210.0 155.6,192.5 155.9,191.8 156.1,195.3 156.4,246.9 156.6,191.6 156.9,192.2 157.1,203.6 157.4,198.5 157.6,198.3 157.9,223.1 158.1,224.4 158.4,203.4 158.6,206.2 158.8,177.9 159.1,174.8 159.3,208.4 159.6,214.8 159.8,194.7 160.1,242.1 160.3,178.2 160.6,204.0 160.8,196.1 161.1,168.1 161.3,217.2 161.5,207.0 161.8,211.5 162.0,202.4 162.3,204.1 162.5,198.2 162.8,154.1 163.0,202.3 163.3,202.3 163.5,174.3 163.8,210.8 164.0,192.2 164.3,199.4 164.5,204.7 164.7,185.0 165.0,155.7 165.2,179.4 165.5,225.6 165.7,197.2 166.0,175.5 166.2,220.5 166.5,201.4 166.7,222.5 167.0,240.0 167.2,180.9 167.5,198.7 167.7,205.0 167.9,216.1 168.2,211.6 168.4,198.1 168.7,205.3 168.9,172.6 169.2,172.9 169.4,181.9 169.7,189.6 169.9,194.0 170.2,162.4 170.4,189.1 170.6,220.8 170.9,201.4 171.1,191.1 171.4,220.3 171.6,235.3 171.9,184.4 172.1,218.6 172.4,199.7 172.6,199.5 172.9,216.8 173.1,187.7 173.4,229.0 173.6,162.7 173.8,203.6 174.1,221.3 174.3,206.5 174.6,192.9 174.8,212.2 175.1,191.5 175.3,199.5 175.6,183.3 175.8,215.9 176.1,216.1 176.3,180.3 176.6,185.2 176.8,197.2 177.0,206.8 177.3,176.7 177.5,177.2 177.8,202.2 178.0,195.9 178.3,172.3 178.5,225.3 178.8,163.9 179.0,206.7 179.3,200.7 179.5,195.3 179.8,191.2 180.0,208.9 180.2,192.5 180.5,209.4 180.7,200.4 181.0,183.9 181.2,212.6 181.5,217.3 181.7,162.5 182.0,175.8 182.2,167.5 182.5,233.1 182.7,160.8 182.9,217.8 183.2,216.3 183.4,226.1 183.7,179.1 183.9,200.5 184.2,177.9 184.4,166.5 184.7,202.8 184.9,202.1 185.2,194.2 185.4,219.3 185.7,191.4 185.9,191.5 186.1,183.9 186.4,192.6 186.6,218.5 186.9,238.7 187.1,223.2 187.4,175.5 187.6,145.3 187.9,190.1 188.1,204.7 188.4,211.4 188.6,195.3 188.9,208.3 189.1,184.4 189.3,217.5 189.6,192.2 189.8,201.1 190.1,195.6 190.3,192.4 190.6,205.2 190.8,186.3 191.1,165.2 191.3,203.1 191.6,213.9 191.8,166.9 192.0,230.1 192.3,214.3 192.5,249.0 192.8,232.5 193.0,193.7 193.3,188.7 193.5,195.1 193.8,227.6 194.0,229.2 194.3,208.5 194.5,194.6 194.8,205.7 195.0,196.1 195.2,180.7 195.5,173.2 195.7,193.9 196.0,204.3 196.2,197.2 196.5,187.0 196.7,202.9 197.0,190.5 197.2,189.4 197.5,217.4 197.7,206.3 198.0,213.3 198.2,203.3 198.4,176.8 198.7,207.5 198.9,209.5 199.2,193.9 199.4,201.6 199.7,207.6 199.9,233.2 200.2,209.5 200.4,204.6 200.7,185.6 200.9,241.6 201.1,205.0 201.4,217.5 201.6,178.7 201.9,178.3 202.1,197.2 202.4,217.9 202.6,195.7 202.9,203.5 203.1,218.9 203.4,187.2 203.6,177.2 203.9,224.9 204.1,177.0 204.3,173.9 204.6,199.4 204.8,216.6 205.1,217.4 205.3,194.7 205.6,191.7 205.8,201.9 206.1,187.9 206.3,225.4 206.6,203.1 206.8,195.1 207.1,225.7 207.3,197.9 207.5,194.8 207.8,188.1 208.0,197.1 208.3,216.2 208.5,201.8 208.8,200.1 209.0,170.4 209.3,219.8 209.5,179.5 209.8,195.8 210.0,187.5 210.3,199.7 210.5,223.6 210.7,210.4 211.0,210.4 211.2,212.8 211.5,203.9 211.7,211.0 212.0,186.3 212.2,211.7 212.5,209.1 212.7,218.4 213.0,194.6 213.2,207.2 213.4,215.4 213.7,174.3 213.9,224.6 214.2,184.5 214.4,220.1 214.7,188.3 214.9,198.1 215.2,213.6 215.4,200.5 215.7,230.5 215.9,196.7 216.2,219.4 216.4,202.9 216.6,191.3 216.9,202.3 217.1,191.0 217.4,209.7 217.6,193.8 217.9,229.8 218.1,203.0 218.4,194.7 218.6,205.5 218.9,184.7 219.1,208.1 219.4,220.1 219.6,173.7 219.8,206.3 220.1,208.3 220.3,193.5 220.6,185.5 220.8,211.4 221.1,170.1 221.3,195.6 221.6,210.0 221.8,196.4 222.1,209.9 222.3,220.3 222.5,199.5 222.8,192.2 223.0,206.7 223.3,201.7 223.5,200.9 223.8,205.1 224.0,231.3 224.3,208.0 224.5,205.6 224.8,196.7 225.0,181.8 225.3,203.8 225.5,201.4 225.7,195.0 226.0,196.4 226.2,201.8 226.5,203.0 226.7,191.3 227.0,204.3 227.2,191.6 227.5,192.4 227.7,204.6 228.0,178.0 228.2,194.8 228.5,194.0 228.7,210.1 228.9,193.7 229.2,202.7 229.4,174.6 229.7,190.4 229.9,206.7 230.2,196.7 230.4,208.2 230.7,194.3 230.9,188.3 231.2,215.4 231.4,186.2 231.6,200.7 231.9,182.4 232.1,202.2 232.4,206.6 232.6,212.4 232.9,158.9 233.1,201.9 233.4,201.8 233.6,184.2 233.9,206.6 234.1,207.0 234.4,205.7 234.6,183.1 234.8,207.6 235.1,198.7 235.3,191.5 235.6,197.5 235.8,193.0 236.1,223.2 236.3,230.7 236.6,204.9 236.8,198.9 237.1,198.1 237.3,206.9 237.6,215.5 237.8,184.4 238.0,225.2 238.3,212.1 238.5,194.8 238.8,205.8 239.0,201.1 239.3,197.8 239.5,192.3 239.8,187.3 240.0,201.3 240.3,185.4 240.5,216.4 240.8,222.6 241.0,201.3 241.2,205.9 241.5,217.5 241.7,197.9 242.0,197.8 242.2,192.2 242.5,215.9 242.7,201.3 243.0,187.5 243.2,203.8 243.5,204.9 243.7,211.7 243.9,213.2 244.2,209.1 244.4,208.6 244.7,197.6 244.9,219.1 245.2,196.7 245.4,198.7 245.7,211.5 245.9,198.7 246.2,217.4 246.4,201.7 246.7,211.1 246.9,210.1 247.1,191.7 247.4,205.2 247.6,198.7 247.9,194.5 248.1,199.9 248.4,215.5 248.6,199.3 248.9,183.5 249.1,212.6 249.4,185.5 249.6,198.8 249.9,204.0 250.1,205.0 250.3,203.0 250.6,186.6 250.8,212.9 251.1,210.1 251.3,200.5 251.6,212.3 251.8,223.2 252.1,194.6 252.3,182.4 252.6,213.2 252.8,183.5 253.0,213.8 253.3,191.4 253.5,215.5 253.8,192.5 254.0,194.0 254.3,189.5 254.5,203.0 254.8,192.1 255.0,212.3 255.3,204.2 255.5,187.7 255.8,192.0 256.0,223.2 256.2,197.8 256.5,203.0 256.7,182.4 257.0,200.2 257.2,234.0 257.5,212.8 257.7,200.6 258.0,179.6 258.2,206.9 258.5,201.0 258.7,173.8 259.0,222.6 259.2,199.0 259.4,202.5 259.7,199.5 259.9,194.8 260.2,193.5 260.4,197.9 260.7,207.6 260.9,186.4 261.2,202.5 261.4,189.7 261.7,202.0 261.9,189.1 262.1,190.5 262.4,171.0 262.6,192.0 262.9,192.3 263.1,213.9 263.4,195.4 263.6,212.9 263.9,189.7 264.1,197.6 264.4,209.9 264.6,186.8 264.9,224.1 265.1,182.1 265.3,207.5 265.6,198.7 265.8,191.4 266.1,208.2 266.3,217.2 266.6,182.9 266.8,185.5 267.1,199.8 267.3,206.9 267.6,194.2 267.8,203.9 268.1,191.6 268.3,206.8 268.5,187.1 268.8,209.3 269.0,198.0 269.3,202.4 269.5,205.0 269.8,211.9 270.0,206.2 270.3,201.6 270.5,194.0 270.8,207.7 271.0,211.9 271.3,201.0 271.5,205.1 271.7,211.0 272.0,213.8 272.2,186.7 272.5,202.9 272.7,202.7 273.0,187.0 273.2,194.8 273.5,203.8 273.7,199.9 274.0,191.0 274.2,197.2 274.4,211.1 274.7,215.8 274.9,213.8 275.2,196.3 275.4,190.9 275.7,188.4 275.9,197.0 276.2,193.9 276.4,212.9 276.7,192.5 276.9,193.8 277.2,194.4 277.4,210.9 277.6,192.7 277.9,198.2 278.1,195.6 278.4,191.5 278.6,211.4 278.9,203.5 279.1,193.3 279.4,218.7 279.6,186.9 279.9,202.6 280.1,207.9 280.4,202.4 280.6,198.8 280.8,197.7 281.1,196.2 281.3,203.2 281.6,196.3 281.8,189.7 282.1,187.7 282.3,197.2 282.6,201.4 282.8,189.0 283.1,205.7 283.3,215.4 283.5,218.9 283.8,210.8 284.0,202.1 284.3,192.2 284.5,203.3 284.8,193.5 285.0,197.5 285.3,198.9 285.5,206.1 285.8,186.1 286.0,198.6 286.3,198.3 286.5,202.3 286.7,200.8 287.0,198.2 287.2,203.2 287.5,193.5 287.7,184.9 288.0,211.0 288.2,220.5 288.5,198.9 288.7,197.1 289.0,212.3 289.2,184.5 289.5,194.1 289.7,213.7 289.9,201.0 290.2,201.3 290.4,188.1 290.7,201.4 290.9,199.0 291.2,191.8 291.4,196.8 291.7,187.7 291.9,196.2 292.2,180.4 292.4,194.1 292.6,199.1 292.9,195.7 293.1,206.4 293.4,203.1 293.6,203.5 293.9,213.1 294.1,210.8 294.4,204.5 294.6,194.9 294.9,192.7 295.1,209.1 295.4,195.9 295.6,196.0 295.8,182.1 296.1,192.7 296.3,195.8 296.6,197.4 296.8,192.2 297.1,187.0 297.3,204.7 297.6,197.1 297.8,214.1 298.1,206.0 298.3,197.6 298.6,213.3 298.8,205.4 299.0,196.5 299.3,188.1 299.5,199.6 299.8,187.1 300.0,204.7 300.3,181.1 300.5,194.8 300.8,197.6 301.0,202.5 301.3,191.1 301.5,205.4 301.8,211.0 302.0,194.5 302.2,210.9 302.5,180.6 302.7,203.6 303.0,206.2 303.2,206.0 303.5,202.8 303.7,214.6 304.0,190.6 304.2,191.6 304.5,219.3 304.7,216.0 304.9,188.8 305.2,199.0 305.4,190.5 305.7,188.6 305.9,200.4 306.2,203.3 306.4,195.9 306.7,198.1 306.9,203.7 307.2,206.8 307.4,192.9 307.7,205.6 307.9,193.1 308.1,214.5 308.4,187.6 308.6,194.4 308.9,182.0 309.1,202.5 309.4,197.4 309.6,204.7 309.9,191.7 310.1,192.5 310.4,209.3 310.6,200.5 310.9,204.8 311.1,192.9 311.3,193.7 311.6,193.8 311.8,205.2 312.1,201.4 312.3,203.6 312.6,206.2 312.8,206.4 313.1,201.0 313.3,201.2 313.6,198.5 313.8,203.5 314.0,207.6 314.3,205.7 314.5,199.7 314.8,199.9 315.0,213.5 315.3,197.1 315.5,206.3 315.8,202.9 316.0,200.8 316.3,187.6 316.5,194.5 316.8,194.4 317.0,195.5 317.2,202.7 317.5,200.0 317.7,212.2 318.0,200.0 318.2,192.0 318.5,199.0 318.7,193.7 319.0,207.0 319.2,194.3 319.5,200.1 319.7,206.3 320.0,200.4 320.2,196.3 320.4,214.9 320.7,192.3 320.9,187.3 321.2,203.4 321.4,212.9 321.7,205.0 321.9,195.8 322.2,191.6 322.4,196.2 322.7,199.2 322.9,206.4 323.1,211.1 323.4,192.6 323.6,204.0 323.9,195.6 324.1,196.5 324.4,196.7 324.6,201.0 324.9,197.2 325.1,202.2 325.4,187.3 325.6,201.9 325.9,202.2 326.1,195.0 326.3,192.9 326.6,195.0 326.8,196.9 327.1,201.5 327.3,194.6 327.6,201.8 327.8,200.9 328.1,185.1 328.3,191.9 328.6,207.2 328.8,205.2 329.1,203.4 329.3,200.5 329.5,204.3 329.8,198.7 330.0,208.7 330.3,198.1 330.5,213.1 330.8,198.5 331.0,192.9 331.3,203.8 331.5,204.8 331.8,174.6 332.0,198.4 332.3,195.9 332.5,198.4 332.7,195.4 333.0,200.7 333.2,199.7 333.5,200.6 333.7,202.3 334.0,206.9 334.2,202.8 334.5,194.6 334.7,202.7 335.0,204.5 335.2,201.3 335.4,209.2 335.7,199.8 335.9,205.3 336.2,194.3 336.4,199.3 336.7,202.4 336.9,191.3 337.2,195.2 337.4,198.9 337.7,218.0 337.9,205.4 338.2,203.0 338.4,200.6 338.6,209.8 338.9,206.3 339.1,200.4 339.4,200.4 339.6,203.3 339.9,207.8 340.1,209.7 340.4,209.3 340.6,206.8 340.9,198.1 341.1,208.3 341.4,198.6 341.6,200.6 341.8,190.2 342.1,193.1 342.3,207.3 342.6,208.2 342.8,196.3 343.1,195.4 343.3,205.5 343.6,202.5 343.8,208.6 344.1,200.5 344.3,202.9 344.5,209.7 344.8,193.4 345.0,191.4 345.3,189.2 345.5,196.4 345.8,199.1 346.0,193.4 346.3,200.1 346.5,206.8 346.8,194.6 347.0,206.8 347.3,195.8 347.5,192.3 347.7,200.1 348.0,191.8 348.2,200.6 348.5,204.2 348.7,192.9 349.0,207.3 349.2,210.1 349.5,195.7 349.7,197.4 350.0,204.9 350.2,206.9 350.5,201.1 350.7,199.9 350.9,190.0 351.2,197.8 351.4,205.0 351.7,198.7 351.9,203.1 352.2,191.8 352.4,198.3 352.7,198.0 352.9,212.3 353.2,194.1 353.4,196.5 353.6,205.4 353.9,201.7 354.1,195.3 354.4,197.8 354.6,207.7 354.9,196.1 355.1,192.1 355.4,203.6 355.6,190.3 355.9,192.3 356.1,193.1 356.4,191.3 356.6,194.7 356.8,198.0 357.1,209.2 357.3,211.8 357.6,199.6 357.8,208.5 358.1,204.1 358.3,209.1 358.6,209.0 358.8,201.5 359.1,212.4 359.3,199.7 359.6,204.7 359.8,195.9 360.0,201.2 360.3,200.6 360.5,195.8 360.8,203.1 361.0,195.2 361.3,205.9 361.5,196.7 361.8,209.0 362.0,197.8 362.3,198.6 362.5,196.6 362.8,201.7 363.0,197.3 363.2,200.0 363.5,196.2 363.7,199.9 364.0,202.3 364.2,209.4 364.5,194.6 364.7,198.5 365.0,197.5 365.2,205.2 365.5,195.1 365.7,201.0 365.9,202.0 366.2,197.3 366.4,201.1 366.7,200.4 366.9,214.7 367.2,205.3 367.4,201.9 367.7,191.4 367.9,198.0 368.2,196.4 368.4,202.3 368.7,198.8 368.9,201.7 369.1,206.0 369.4,199.3 369.6,194.3 369.9,200.8 370.1,198.0 370.4,208.7 370.6,198.4 370.9,197.4 371.1,201.7 371.4,207.1 371.6,190.9 371.9,195.3 372.1,194.9 372.3,193.5 372.6,199.8 372.8,207.9 373.1,204.8 373.3,200.4 373.6,198.4 373.8,204.2 374.1,199.9 374.3,204.6 374.6,196.3 374.8,204.1 375.0,200.8 375.3,201.7 375.5,202.6 375.8,202.9 376.0,196.7 376.3,199.1 376.5,199.1 376.8,194.6 377.0,198.4 377.3,198.7 377.5,203.0 377.8,199.7 378.0,198.5 378.2,201.8 378.5,205.2 378.7,208.8 379.0,201.3 379.2,192.1 379.5,198.8 379.7,190.3 380.0,203.2 380.2,201.4 380.5,203.3 380.7,199.6 381.0,201.8 381.2,202.0 381.4,205.0 381.7,195.4 381.9,203.6 382.2,197.7 382.4,198.0 382.7,196.1 382.9,200.1 383.2,194.9 383.4,195.3 383.7,197.1 383.9,202.0 384.1,196.5 384.4,190.7 384.6,208.1 384.9,205.3 385.1,197.0 385.4,203.3 385.6,201.2 385.9,196.0 386.1,203.5 386.4,204.0 386.6,192.2 386.9,208.1 387.1,206.6 387.3,195.5 387.6,199.6 387.8,200.1 388.1,200.2 388.3,191.6 388.6,201.2 388.8,202.9 389.1,202.5 389.3,188.7 389.6,203.8 389.8,197.0 390.1,199.5 390.3,196.1 390.5,204.0 390.8,198.3 391.0,204.7 391.3,198.6 391.5,198.9 391.8,200.5 392.0,201.5 392.3,202.8 392.5,204.5 392.8,197.7 393.0,203.5 393.3,197.9 393.5,210.1 393.7,200.9 394.0,197.6 394.2,200.7 394.5,193.0 394.7,191.5 395.0,197.4 395.2,197.6 395.5,195.4 395.7,202.3 396.0,197.6 396.2,199.2 396.4,194.5 396.7,194.5 396.9,195.5 397.2,190.5 397.4,197.6 397.7,199.9 397.9,198.9 398.2,196.6 398.4,199.7 398.7,194.6 398.9,201.9 399.2,201.4 399.4,197.1 399.6,207.5 399.9,197.0 400.1,201.6 400.4,199.2 400.6,203.3 400.9,201.4 401.1,195.2 401.4,194.1 401.6,204.7 401.9,195.7 402.1,201.2 402.4,199.4 402.6,200.6 402.8,198.5 403.1,200.4 403.3,197.2 403.6,201.3 403.8,205.0 404.1,199.7 404.3,197.4 404.6,199.7 404.8,204.0 405.1,202.7 405.3,203.4 405.5,196.9 405.8,203.9 406.0,200.6 406.3,191.8 406.5,195.6 406.8,206.2 407.0,197.4 407.3,209.1 407.5,199.9 407.8,206.7 408.0,199.4 408.3,201.9 408.5,201.7 408.7,203.6 409.0,190.9 409.2,201.9 409.5,200.0 409.7,198.2 410.0,198.7 410.2,202.8 410.5,197.8 410.7,202.8 411.0,205.9 411.2,202.8 411.5,200.0 411.7,198.3 411.9,202.8 412.2,204.3 412.4,202.1 412.7,200.1 412.9,204.7 413.2,201.2 413.4,199.7 413.7,201.3 413.9,205.9 414.2,200.1 414.4,200.9 414.7,200.9 414.9,200.1 415.1,206.2 415.4,202.8 415.6,202.8 415.9,199.7 416.1,201.0 416.4,200.5 416.6,201.4 416.9,207.3 417.1,201.0 417.4,197.1 417.6,203.9 417.8,199.3 418.1,192.1 418.3,203.1 418.6,199.7 418.8,200.5 419.1,201.7 419.3,199.8 419.6,199.0 419.8,204.0 420.1,202.1 420.3,199.3 420.6,200.9 420.8,200.9 421.0,202.0 421.3,202.0 421.5,197.1 421.8,199.6 422.0,199.0 422.3,194.9 422.5,201.2 422.8,206.3 423.0,191.6 423.3,203.8 423.5,196.4 423.8,197.5 424.0,195.8 424.2,203.6 424.5,197.3 424.7,200.6 425.0,196.6 425.2,200.4 425.5,197.2 425.7,201.7 426.0,199.0 426.2,199.8 426.5,195.2 426.7,200.0 426.9,197.3 427.2,204.5 427.4,202.9 427.7,196.4 427.9,204.5 428.2,195.1 428.4,198.8 428.7,200.7 428.9,205.0 429.2,199.2 429.4,197.8 429.7,200.9 429.9,199.1 430.1,199.3 430.4,204.8 430.6,199.2 430.9,199.1 431.1,199.3 431.4,195.8 431.6,200.1 431.9,204.0 432.1,195.8 432.4,197.7 432.6,200.1 432.9,199.6 433.1,200.5 433.3,202.9 433.6,198.3 433.8,199.7 434.1,198.5 434.3,197.9 434.6,197.7 434.8,201.3 435.1,194.5 435.3,192.6 435.6,196.7 435.8,196.6 436.0,201.6 436.3,200.5 436.5,195.4 436.8,197.0 437.0,202.0 437.3,201.0 437.5,202.7 437.8,202.2 438.0,198.5 438.3,196.5 438.5,196.1 438.8,202.5 439.0,198.1 439.2,191.5 439.5,201.3 439.7,200.8 440.0,201.2 440.2,192.8 440.5,200.0 440.7,197.6 441.0,201.7 441.2,195.8 441.5,192.6 441.7,203.4 442.0,199.6 442.2,201.8 442.4,201.7 442.7,200.7 442.9,200.9 443.2,199.5 443.4,204.9 443.7,195.4 443.9,202.6 444.2,195.5 444.4,195.3 444.7,194.1 444.9,198.4 445.2,195.5 445.4,203.5 445.6,197.9 445.9,200.2 446.1,201.8 446.4,199.0 446.6,198.2 446.9,202.3 447.1,204.2 447.4,200.3 447.6,197.6 447.9,196.3 448.1,200.5 448.3,200.0 448.6,198.4 448.8,196.0 449.1,198.8 449.3,197.6 449.6,202.4 449.8,203.0 450.1,201.6 450.3,204.3 450.6,197.4 450.8,199.7 451.1,197.1 451.3,203.2 451.5,198.6 451.8,197.8 452.0,197.7 452.3,204.3 452.5,200.7 452.8,200.8 453.0,196.9 453.3,196.5 453.5,202.6 453.8,200.0 454.0,194.2 454.3,202.7 454.5,199.2 454.7,201.9 455.0,200.0 455.2,197.3 455.5,198.6 455.7,201.4 456.0,197.7 456.2,196.1 456.5,198.0 456.7,202.4 457.0,201.6 457.2,201.0 457.4,202.3 457.7,195.5 457.9,201.3 458.2,199.8 458.4,203.3 458.7,205.1 458.9,198.0 459.2,199.3 459.4,198.3 459.7,203.2 459.9,198.5 460.2,201.7 460.4,196.4 460.6,201.9 460.9,203.0 461.1,203.3 461.4,201.2 461.6,198.9 461.9,203.5 462.1,199.2 462.4,196.1 462.6,196.1 462.9,200.3 463.1,199.0 463.4,198.2 463.6,195.5 463.8,202.6 464.1,200.5 464.3,202.6 464.6,198.2 464.8,197.8 465.1,202.6 465.3,201.1 465.6,199.1 465.8,204.2 466.1,199.3 466.3,199.2 466.5,202.3 466.8,202.9 467.0,196.2 467.3,195.9 467.5,200.7 467.8,200.1 468.0,201.9 468.3,196.0 468.5,197.4 468.8,201.3 469.0,198.7 469.3,199.4 469.5,201.0 469.7,200.7 470.0,198.9 470.2,198.7 470.5,204.1 470.7,200.3 471.0,202.1 471.2,198.5 471.5,203.0 471.7,198.8 472.0,200.0 472.2,200.3 472.5,201.8 472.7,197.3 472.9,198.5 473.2,203.0 473.4,200.3 473.7,199.7 473.9,201.9 474.2,198.1 474.4,199.2 474.7,200.0 474.9,197.2 475.2,199.0 475.4,198.9 475.7,199.0 475.9,201.1 476.1,196.0 476.4,204.5 476.6,198.1 476.9,199.5 477.1,200.7 477.4,199.7 477.6,201.9 477.9,201.8 478.1,196.4 478.4,201.7 478.6,198.3 478.8,199.9 479.1,199.8 479.3,204.5 479.6,203.4 479.8,199.2 480.1,201.3 480.3,200.9 480.6,200.3 480.8,202.7 481.1,201.9 481.3,196.3 481.6,201.7 481.8,199.4 482.0,199.8 482.3,198.3 482.5,199.9 482.8,200.5 483.0,195.6 483.3,204.3 483.5,199.7 483.8,199.7 484.0,199.9 484.3,199.3 484.5,199.2 484.8,197.4 485.0,196.0 485.2,195.6 485.5,200.1 485.7,198.0 486.0,196.3 486.2,201.8 486.5,197.5 486.7,196.0 487.0,199.7 487.2,198.6 487.5,202.6 487.7,196.1 487.9,201.3 488.2,205.1 488.4,200.7 488.7,200.6 488.9,199.9 489.2,202.8 489.4,201.1 489.7,202.1 489.9,199.5 490.2,200.3 490.4,198.4 490.7,196.4 490.9,202.2 491.1,197.6 491.4,197.8 491.6,194.5 491.9,197.7 492.1,202.8 492.4,200.1 492.6,197.2 492.9,203.1 493.1,199.5 493.4,199.6 493.6,198.3 493.9,199.4 494.1,197.7 494.3,200.2 494.6,199.2 494.8,204.6 495.1,197.1 495.3,203.5 495.6,203.1 495.8,199.8 496.1,196.8 496.3,200.6 496.6,202.3 496.8,198.4 497.0,199.7 497.3,202.6 497.5,201.9 497.8,201.9 498.0,202.1 498.3,200.4 498.5,201.0 498.8,200.2 499.0,202.9 499.3,199.8 499.5,201.1 499.8,203.2 500.0,200.3 500.2,198.3 500.5,196.5 500.7,197.8 501.0,202.3 501.2,197.7 501.5,198.1 501.7,198.1 502.0,204.9 502.2,199.2 502.5,202.5 502.7,200.2 503.0,201.7 503.2,198.1 503.4,201.1 503.7,198.9 503.9,199.7 504.2,198.0 504.4,199.5 504.7,199.2 504.9,200.8 505.2,204.1 505.4,202.2 505.7,200.8 505.9,199.8 506.1,198.9 506.4,199.1 506.6,198.6 506.9,200.5 507.1,200.4 507.4,197.4 507.6,201.4 507.9,201.4 508.1,199.0 508.4,197.2 508.6,198.5 508.9,201.1 509.1,200.6 509.3,198.4 509.6,200.8 509.8,200.6 510.1,196.3 510.3,197.9 510.6,203.7 510.8,197.7 511.1,197.4 511.3,203.6 511.6,198.6 511.8,198.4 512.1,200.3 512.3,197.9 512.5,199.6 512.8,200.5 513.0,200.2 513.3,199.1 513.5,200.9 513.8,197.4 514.0,201.5 514.3,202.1 514.5,200.9 514.8,199.9 515.0,197.4 515.2,200.3 515.5,200.0 515.7,202.6 516.0,200.8 516.2,202.4 516.5,200.1 516.7,200.2 517.0,198.8 517.2,201.0 517.5,201.8 517.7,200.2 518.0,201.2 518.2,200.3 518.4,201.0 518.7,201.6 518.9,200.7 519.2,198.5 519.4,203.1 519.7,200.7 519.9,202.3 520.2,200.2 520.4,199.6 520.7,200.7 520.9,199.3 521.2,198.6 521.4,200.3 521.6,201.0 521.9,200.8 522.1,197.9 522.4,198.7 522.6,200.6 522.9,201.1 523.1,200.3 523.4,198.4 523.6,202.8 523.9,196.9 524.1,198.4 524.3,200.5 524.6,203.3 524.8,197.5 525.1,196.3 525.3,203.2 525.6,198.5 525.8,198.4 526.1,200.4 526.3,200.1 526.6,203.7 526.8,201.8 527.1,197.3 527.3,199.3 527.5,202.2 527.8,200.1 528.0,199.7 528.3,202.3 528.5,200.1 528.8,199.3 529.0,199.4 529.3,198.1 529.5,200.0 529.8,200.1 530.0,200.8 530.3,199.3 530.5,200.8 530.7,199.8 531.0,198.4 531.2,199.6 531.5,198.5 531.7,203.1 532.0,199.9 532.2,198.8 532.5,197.0 532.7,200.9 533.0,201.7 533.2,200.6 533.4,199.0 533.7,199.8 533.9,200.1 534.2,201.6 534.4,199.4 534.7,201.1 534.9,202.7 535.2,202.9 535.4,197.2 535.7,201.7 535.9,198.9 536.2,200.2 536.4,199.9 536.6,201.4 536.9,201.7 537.1,202.5 537.4,200.5 537.6,198.5 537.9,197.8 538.1,200.0 538.4,200.1 538.6,201.6 538.9,197.9 539.1,202.6 539.4,200.7 539.6,199.4 539.8,198.1 540.1,199.8 540.3,200.1 540.6,200.6 540.8,200.1 541.1,199.1 541.3,198.2 541.6,200.0 541.8,198.8 542.1,202.7 542.3,199.4 542.5,202.0 542.8,198.7 543.0,198.2 543.3,198.8 543.5,198.9 543.8,201.4 544.0,201.6 544.3,199.7 544.5,200.4 544.8,200.8 545.0,200.4 545.3,200.2 545.5,198.9 545.7,199.7 546.0,200.9 546.2,201.1 546.5,200.2 546.7,196.6 547.0,201.4 547.2,200.2 547.5,198.9 547.7,202.7 548.0,197.3 548.2,199.1 548.5,199.1 548.7,201.0 548.9,200.5 549.2,199.7 549.4,199.1 549.7,200.1 549.9,198.9 550.2,200.6 550.4,199.7 550.7,199.5 550.9,203.0 551.2,199.5 551.4,197.8 551.7,198.6 551.9,201.8 552.1,200.2 552.4,198.6 552.6,201.2 552.9,200.0 553.1,201.7 553.4,201.3 553.6,202.0 553.9,201.1 554.1,199.8 554.4,201.8 554.6,201.9 554.8,202.4 555.1,201.3 555.3,198.8 555.6,199.4 555.8,199.2 556.1,200.2 556.3,203.3 556.6,201.9 556.8,200.4 557.1,200.3 557.3,199.5 557.6,200.9 557.8,199.5 558.0,200.6 558.3,199.3 558.5,199.6 558.8,199.5 559.0,202.4 559.3,198.8 559.5,200.9 559.8,199.2 560.0,201.5 560.3,200.6 560.5,199.1 560.8,199.4 561.0,202.2 561.2,200.9 561.5,199.8 561.7,202.1 562.0,198.2 562.2,198.9 562.5,199.4 562.7,199.1 563.0,198.5 563.2,199.5 563.5,199.2 563.7,200.8 563.9,201.6 564.2,198.7 564.4,200.2 564.7,200.0 564.9,201.4 565.2,201.8 565.4,200.9 565.7,196.0 565.9,199.4 566.2,199.3 566.4,199.7 566.7,203.1 566.9,199.2 567.1,200.4 567.4,200.6 567.6,199.3 567.9,200.2 568.1,200.0 568.4,199.3 568.6,199.7 568.9,197.4 569.1,199.3 569.4,200.6 569.6,200.2 569.9,199.4 570.1,200.6 570.3,199.9 570.6,201.6 570.8,200.3 571.1,200.8 571.3,200.1 571.6,201.9 571.8,200.9 572.1,199.4 572.3,200.4 572.6,199.3 572.8,200.4 573.0,199.2 573.3,199.5 573.5,202.1 573.8,201.2 574.0,201.7 574.3,200.8 574.5,202.1 574.8,197.7 575.0,200.9 575.3,199.1 575.5,198.5 575.8,200.8 576.0,200.1 576.2,200.6 576.5,199.6 576.7,202.5 577.0,200.0 577.2,198.2 577.5,200.9 577.7,200.9 578.0,197.8 578.2,201.6 578.5,199.5 578.7,199.5 579.0,199.9 579.2,202.2 579.4,200.1 579.7,200.6 579.9,200.3 580.2,199.9 580.4,199.8 580.7,200.8 580.9,199.4 581.2,200.6 581.4,201.8 581.7,199.5 581.9,200.2 582.2,198.2 582.4,200.4 582.6,201.1 582.9,199.8 583.1,201.6 583.4,200.3 583.6,199.2 583.9,199.3 584.1,201.9 584.4,200.2 584.6,198.3 584.9,201.1 585.1,200.2 585.3,200.1 585.6,199.2 585.8,201.4 586.1,199.2 586.3,200.1 586.6,200.5 586.8,201.2 587.1,203.1 587.3,201.1 587.6,199.1 587.8,199.0 588.1,197.4 588.3,201.3 588.5,199.8 588.8,200.3 589.0,200.8 589.3,200.6 589.5,198.9 589.8,198.4 590.0,198.7 590.3,198.7 590.5,199.4 590.8,200.4 591.0,200.0 591.3,200.2 591.5,200.3 591.7,198.5 592.0,198.7 592.2,200.6 592.5,198.4 592.7,200.8 593.0,200.1 593.2,199.5 593.5,200.4 593.7,198.6 594.0,198.0 594.2,198.8 594.4,200.3 594.7,200.3 594.9,198.4 595.2,200.1 595.4,199.7 595.7,201.0 595.9,201.8 596.2,199.6 596.4,201.2 596.7,199.1 596.9,199.4 597.2,199.5 597.4,201.2 597.6,199.4 597.9,200.8 598.1,200.3 598.4,199.4 598.6,201.3 598.9,199.3 599.1,200.4 599.4,200.6 599.6,201.4 599.9,200.1 600.1,200.0 600.4,199.5 600.6,199.3 600.8,198.7 601.1,199.1 601.3,201.0 601.6,199.8 601.8,201.3 602.1,200.3 602.3,199.0 602.6,200.1 602.8,199.0 603.1,199.9 603.3,199.7 603.5,199.9 603.8,199.0 604.0,198.2 604.3,200.2 604.5,200.3 604.8,201.1 605.0,199.1 605.3,199.5 605.5,199.8 605.8,199.3 606.0,201.0 606.3,199.5 606.5,199.2 606.7,200.6 607.0,200.0 607.2,199.3 607.5,199.4 607.7,201.1 608.0,199.2 608.2,200.8 608.5,199.8 608.7,199.9 609.0,201.0 609.2,199.5 609.5,200.8 609.7,198.6 609.9,199.7 610.2,199.1 610.4,199.0 610.7,200.4 610.9,200.4 611.2,199.7 611.4,201.0 611.7,200.4 611.9,200.9 612.2,200.9 612.4,200.0 612.7,200.1 612.9,199.3 613.1,198.5 613.4,199.4 613.6,199.7 613.9,199.5 614.1,200.7 614.4,199.4 614.6,199.5 614.9,201.1 615.1,200.2 615.4,199.0 615.6,199.4 615.8,201.4 616.1,198.6 616.3,200.7 616.6,199.6 616.8,198.7 617.1,200.5 617.3,199.5 617.6,199.6 617.8,200.7 618.1,198.3 618.3,198.9 618.6,201.0 618.8,200.3 619.0,200.9 619.3,199.4 619.5,201.2 619.8,198.9 620.0,198.2 620.3,200.3 620.5,201.7 620.8,200.4 621.0,200.1 621.3,199.3 621.5,199.6 621.8,200.3 622.0,199.2 622.2,200.1 622.5,201.0 622.7,199.6 623.0,199.4 623.2,198.9 623.5,200.4 623.7,200.4 624.0,200.3 624.2,200.4 624.5,200.2 624.7,199.6 624.9,199.4 625.2,200.1 625.4,200.9 625.7,200.2 625.9,200.8 626.2,199.6 626.4,199.6 626.7,198.9 626.9,199.8 627.2,199.6 627.4,199.8 627.7,200.0 627.9,199.9 628.1,200.7 628.4,199.9 628.6,200.2 628.9,200.0 629.1,199.4 629.4,200.7 629.6,200.3 629.9,200.6 630.1,199.7 630.4,200.2 630.6,200.6 630.9,200.2 631.1,200.7 631.3,199.3 631.6,199.6 631.8,200.2 632.1,200.8 632.3,199.7 632.6,200.3 632.8,199.7 633.1,201.4 633.3,200.3 633.6,199.8 633.8,199.4 634.0,200.4 634.3,200.1 634.5,199.9 634.8,200.1 635.0,198.2 635.3,199.5 635.5,199.6 635.8,200.7 636.0,200.7 636.3,200.5 636.5,200.6 636.8,201.9 637.0,200.1 637.2,199.1 637.5,200.6 637.7,201.5 638.0,200.3 638.2,200.4 638.5,200.0 638.7,200.8 639.0,199.6 639.2,199.9 639.5,200.6 639.7,199.7 640.0,201.2 640.2,201.3 640.4,201.0 640.7,200.5 640.9,200.9 641.2,200.4 641.4,200.7 641.7,201.3 641.9,200.0 642.2,199.8 642.4,200.0 642.7,199.9 642.9,199.7 643.2,200.7 643.4,199.7 643.6,199.4 643.9,200.5 644.1,199.6 644.4,199.9 644.6,199.9 644.9,200.8 645.1,200.0 645.4,200.8 645.6,200.0 645.9,199.2 646.1,199.4 646.3,200.0 646.6,201.1 646.8,200.5 647.1,200.2 647.3,199.5 647.6,199.5 647.8,200.8 648.1,200.8 648.3,199.3 648.6,199.8 648.8,199.0 649.1,199.3 649.3,199.9 649.5,200.6 649.8,200.7 650.0,200.1 650.3,201.1 650.5,200.3 650.8,199.9 651.0,200.8 651.3,200.0 651.5,200.7 651.8,199.6 652.0,199.7 652.3,200.6 652.5,199.7 652.7,200.0 653.0,199.2 653.2,200.4 653.5,199.6 653.7,199.8 654.0,201.4 654.2,200.6 654.5,200.0 654.7,200.5 655.0,200.8 655.2,201.5 655.4,199.9 655.7,199.8 655.9,200.2 656.2,199.9 656.4,200.5 656.7,200.1 656.9,199.7 657.2,199.2 657.4,200.9 657.7,198.9 657.9,200.2 658.2,199.1 658.4,199.3 658.6,200.6 658.9,200.8 659.1,200.0 659.4,200.2 659.6,200.4 659.9,199.1 660.1,200.0 660.4,200.2 660.6,200.3 660.9,199.9 661.1,199.0 661.4,200.3 661.6,200.6 661.8,200.3 662.1,200.4 662.3,198.7 662.6,199.6 662.8,200.8 663.1,200.2 663.3,199.9 663.6,200.4 663.8,198.6 664.1,201.5 664.3,199.6 664.5,199.7 664.8,199.5 665.0,200.7 665.3,198.7 665.5,199.5 665.8,199.6 666.0,200.1 666.3,199.1 666.5,200.5 666.8,199.4 667.0,200.2 667.3,199.8 667.5,200.5 667.7,199.6 668.0,200.8 668.2,201.4 668.5,199.1 668.7,200.4 669.0,200.4 669.2,200.1 669.5,199.9 669.7,199.5 670.0,201.7 670.2,199.6 670.5,199.7 670.7,200.1 670.9,200.1 671.2,199.6 671.4,199.4 671.7,199.3 671.9,200.6 672.2,199.8 672.4,198.5 672.7,200.4 672.9,200.6 673.2,199.3 673.4,199.8 673.7,199.8 673.9,200.9 674.1,201.8 674.4,199.9 674.6,200.2 674.9,199.9 675.1,200.2 675.4,200.0 675.6,199.7 675.9,199.4 676.1,201.4 676.4,200.5 676.6,199.5 676.8,199.5 677.1,200.4 677.3,200.4 677.6,200.2 677.8,201.1 678.1,200.8 678.3,200.3 678.6,200.1 678.8,199.8 679.1,199.5 679.3,200.1 679.6,200.5 679.8,200.9 680.0,199.8 680.3,199.9 680.5,200.4 680.8,200.4 681.0,199.9 681.3,200.0 681.5,199.3 681.8,200.5 682.0,200.0 682.3,200.1 682.5,200.2 682.8,200.8 683.0,201.1 683.2,199.8 683.5,198.9 683.7,199.4 684.0,200.2 684.2,199.9 684.5,199.4 684.7,199.2 685.0,199.8 685.2,200.2 685.5,198.8 685.7,200.5 685.9,200.0 686.2,200.3 686.4,200.3 686.7,200.0 686.9,200.1 687.2,200.6 687.4,200.3 687.7,200.7 687.9,200.1 688.2,199.8 688.4,200.1 688.7,200.5 688.9,200.3 689.1,200.4 689.4,199.4 689.6,199.4 689.9,199.9 690.1,200.9 690.4,200.7 690.6,199.8 690.9,201.1 691.1,199.7 691.4,200.1 691.6,200.6 691.9,200.1 692.1,199.6 692.3,199.6 692.6,200.7 692.8,199.6 693.1,199.5 693.3,200.2 693.6,200.2 693.8,199.9 694.1,199.9 694.3,199.9 694.6,199.8 694.8,199.3 695.0,200.4 695.3,200.6 695.5,199.5 695.8,200.5 696.0,199.1 696.3,201.3 696.5,200.3 696.8,199.0 697.0,200.4 697.3,200.8 697.5,199.1 697.8,199.8 698.0,199.8 698.2,200.4 698.5,201.0 698.7,200.0 699.0,199.7 699.2,200.0 699.5,200.8 699.7,199.8 700.0,199.9 700.2,199.7 700.5,200.1 700.7,200.5 701.0,199.6 701.2,200.3 701.4,200.1 701.7,200.3 701.9,200.0 702.2,199.8 702.4,200.1 702.7,199.9 702.9,200.7 703.2,199.2 703.4,200.6 703.7,199.5 703.9,199.6 704.2,199.7 704.4,200.0 704.6,199.8 704.9,200.0 705.1,200.1 705.4,200.1 705.6,198.9 705.9,199.4 706.1,199.9 706.4,200.0 706.6,200.1 706.9,200.3 707.1,199.8 707.3,199.9 707.6,200.2 707.8,200.2 708.1,200.0 708.3,200.1 708.6,199.8 708.8,200.3 709.1,200.3 709.3,200.4 709.6,200.0 709.8,199.9 710.1,200.0 710.3,200.4 710.5,199.9 710.8,200.0 711.0,200.2 711.3,200.2 711.5,199.4 711.8,200.6 712.0,200.0 712.3,200.0 712.5,199.9 712.8,199.8 713.0,199.7 713.3,199.9 713.5,199.6 713.7,199.9 714.0,201.0 714.2,200.0 714.5,199.9 714.7,199.7 715.0,200.0 715.2,199.6 715.5,200.2 715.7,200.1 716.0,199.7 716.2,199.9 716.4,200.4 716.7,199.6 716.9,200.4 717.2,199.9 717.4,200.3 717.7,200.0 717.9,200.0 718.2,200.1 718.4,199.8 718.7,200.0 718.9,200.6 719.2,200.4 719.4,200.1 719.6,200.2 719.9,200.5 720.1,200.0 720.4,199.8 720.6,199.2 720.9,199.5 721.1,199.3 721.4,199.3 721.6,200.1 721.9,200.2 722.1,199.5 722.4,199.8 722.6,200.4 722.8,200.0 723.1,200.0 723.3,200.9 723.6,200.5 723.8,200.5 724.1,199.9 724.3,199.7 724.6,199.4 724.8,200.3 725.1,200.6 725.3,199.2 725.5,200.3 725.8,200.1 726.0,200.2 726.3,199.7 726.5,200.3 726.8,199.7 727.0,200.2 727.3,200.4 727.5,200.2 727.8,200.1 728.0,200.6 728.3,199.8 728.5,200.3 728.7,200.4 729.0,200.0 729.2,199.6 729.5,200.0 729.7,200.1 730.0,200.4 730.2,199.8 730.5,200.2 730.7,199.9 731.0,199.9 731.2,199.9 731.5,200.8 731.7,200.1 731.9,199.7 732.2,200.2 732.4,200.0 732.7,200.1 732.9,200.4 733.2,200.2 733.4,200.1 733.7,199.8 733.9,200.4 734.2,200.7 734.4,199.6 734.7,199.5 734.9,200.3 735.1,200.6 735.4,200.1 735.6,200.1 735.9,199.5 736.1,199.7 736.4,199.4 736.6,200.2 736.9,200.5 737.1,200.2 737.4,199.2 737.6,199.6 737.8,200.3 738.1,199.7 738.3,200.6 738.6,200.3 738.8,200.1 739.1,199.9 739.3,199.9 739.6,199.9 739.8,199.9 740.1,200.5 740.3,200.4 740.6,199.8 740.8,200.0 741.0,199.7 741.3,200.7 741.5,199.9 741.8,200.1 742.0,199.8 742.3,199.8 742.5,200.2 742.8,199.9 743.0,199.5 743.3,199.8 743.5,200.1 743.8,199.9 744.0,199.9 744.2,199.8 744.5,200.2 744.7,199.5 745.0,200.3 745.2,200.4 745.5,200.2 745.7,199.4 746.0,200.6 746.2,200.1 746.5,199.6 746.7,200.1 746.9,200.0 747.2,200.4 747.4,200.4 747.7,199.8 747.9,199.6 748.2,200.2 748.4,200.4 748.7,199.7 748.9,199.6 749.2,199.6 749.4,200.2 749.7,199.9 749.9,199.8 750.1,199.9 750.4,199.3 750.6,200.1 750.9,200.4 751.1,199.8 751.4,200.0 751.6,200.5 751.9,199.7 752.1,200.5 752.4,199.7 752.6,200.1 752.9,200.4 753.1,199.8 753.3,199.6 753.6,200.4 753.8,200.1 754.1,199.9 754.3,199.7 754.6,199.4 754.8,199.7 755.1,200.1 755.3,199.9 755.6,200.1 755.8,200.1 756.0,199.7 756.3,199.5 756.5,200.3 756.8,200.0 757.0,199.4 757.3,200.6 757.5,199.7 757.8,200.4 758.0,199.4 758.3,200.5 758.5,199.9 758.8,200.2 759.0,199.9 759.2,200.0 759.5,200.6 759.7,200.1 760.0,199.8 760.2,199.7 760.5,199.6 760.7,200.1 761.0,199.6 761.2,200.4 761.5,199.9 761.7,200.5 762.0,200.0 762.2,199.9 762.4,199.9 762.7,200.0 762.9,200.4 763.2,200.5 763.4,200.2 763.7,200.1 763.9,199.9 764.2,200.0 764.4,200.5 764.7,200.0 764.9,199.8 765.2,200.2 765.4,200.0 765.6,200.8 765.9,199.7 766.1,199.6 766.4,200.1 766.6,200.2 766.9,199.9 767.1,200.0 767.4,200.1 767.6,199.8 767.9,199.8 768.1,199.8 768.3,200.1 768.6,200.2 768.8,199.6 769.1,200.1 769.3,200.2 769.6,199.7 769.8,200.0 770.1,200.2 770.3,199.8 770.6,199.7 770.8,199.9 771.1,199.9 771.3,199.9 771.5,200.1 771.8,199.9 772.0,200.2 772.3,199.9 772.5,200.3 772.8,199.8 773.0,199.9 773.3,199.6 773.5,199.6 773.8,200.2 774.0,199.9 774.3,200.0 774.5,200.1 774.7,199.7 775.0,199.6 775.2,200.3 775.5,199.5 775.7,199.9 776.0,200.4 776.2,199.9 776.5,200.0 776.7,200.3 777.0,199.9 777.2,199.9 777.4,200.5 777.7,200.0 777.9,200.0 778.2,200.0 778.4,201.0 778.7,199.9 778.9,199.7 779.2,200.1 779.4,199.9 779.7,199.9 779.9,199.7 780.2,199.6 780.4,199.7 780.6,199.6 780.9,199.9 781.1,200.3 781.4,199.5 781.6,199.4 781.9,199.6 782.1,200.2 782.4,199.7 782.6,199.9 782.9,200.0 783.1,199.7 783.4,200.0 783.6,199.8 783.8,199.7 784.1,200.4 784.3,200.0 784.6,200.0 784.8,200.0 785.1,199.9 785.3,200.0 785.6,199.8 785.8,200.1 786.1,200.2 786.3,199.5 786.6,199.8 786.8,200.1 787.0,200.0 787.3,199.8 787.5,200.1 787.8,200.2 788.0,200.0 788.3,200.3 788.5,200.2 788.8,200.2 789.0,200.0 789.3,200.4 789.5,200.2 789.7,199.8 790.0,200.0 790.2,200.5 790.5,199.6 790.7,200.0 791.0,199.8 791.2,200.0 791.5,199.4 791.7,200.3 792.0,199.9 792.2,200.4 792.5,199.7 792.7,200.2 792.9,199.7 793.2,199.9 793.4,199.9 793.7,199.7 793.9,200.2 794.2,199.9 794.4,200.0 794.7,199.1 794.9,199.9 795.2,200.1 795.4,200.2 795.7,200.1 795.9,199.8 796.1,200.3 796.4,199.6 796.6,199.6 796.9,200.2 797.1,200.1 797.4,200.1 797.6,200.0 797.9,200.3 798.1,200.0 798.4,199.6 798.6,200.3 798.8,200.0 799.1,200.3 799.3,199.7 799.6,199.8 799.8,199.6 800.1,199.6 800.3,200.0 800.6,199.9 800.8,200.0 801.1,199.8 801.3,199.9 801.6,200.3 801.8,200.0 802.0,200.3 802.3,200.2 802.5,200.3 802.8,200.2 803.0,199.6 803.3,199.7 803.5,199.8 803.8,200.2 804.0,200.3 804.3,200.0 804.5,199.7 804.8,199.8 805.0,200.4 805.2,199.9 805.5,200.5 805.7,200.1 806.0,199.5 806.2,199.9 806.5,199.6 806.7,199.9 807.0,200.1 807.2,200.0 807.5,200.2 807.7,200.3 807.9,199.5 808.2,200.1 808.4,200.1 808.7,200.3 808.9,199.8 809.2,199.8 809.4,199.7 809.7,200.1 809.9,200.4 810.2,200.1 810.4,200.2 810.7,199.9 810.9,199.8 811.1,199.7 811.4,199.9 811.6,199.7 811.9,199.8 812.1,200.1 812.4,199.4 812.6,200.1 812.9,199.5 813.1,199.8 813.4,200.0 813.6,199.8 813.9,200.3 814.1,200.1 814.3,199.9 814.6,199.7 814.8,200.0 815.1,199.9 815.3,199.7 815.6,199.7 815.8,200.1 816.1,199.8 816.3,200.0 816.6,200.0 816.8,199.9 817.1,199.9 817.3,200.0 817.5,199.8 817.8,200.1 818.0,200.0 818.3,199.8 818.5,200.1 818.8,199.8 819.0,200.2 819.3,200.0 819.5,200.1 819.8,199.9 820.0,200.0 820.2,200.0 820.5,199.7 820.7,200.1 821.0,200.2 821.2,199.9 821.5,199.8 821.7,199.5 822.0,199.9 822.2,200.0 822.5,200.0 822.7,200.1 823.0,199.6 823.2,200.1 823.4,199.7 823.7,200.1 823.9,200.0 824.2,200.0 824.4,199.9 824.7,200.1 824.9,199.8 825.2,199.8 825.4,199.9 825.7,200.2 825.9,200.2 826.2,200.2 826.4,199.7 826.6,200.0 826.9,200.2 827.1,200.3 827.4,199.9 827.6,199.9 827.9,200.1 828.1,199.8 828.4,200.1 828.6,199.9 828.9,199.8 829.1,199.7 829.3,200.0 829.6,200.1 829.8,200.2 830.1,200.4 830.3,200.0 830.6,200.1 830.8,200.3 831.1,199.8 831.3,199.9 831.6,200.1 831.8,199.9 832.1,200.2 832.3,199.8 832.5,199.9 832.8,200.3 833.0,199.9 833.3,200.2 833.5,200.1 833.8,199.8 834.0,200.2 834.3,200.1 834.5,199.8 834.8,200.1 835.0,199.9 835.3,200.2 835.5,200.0 835.7,200.4 836.0,200.2 836.2,200.1 836.5,200.1 836.7,200.2 837.0,199.8 837.2,199.8 837.5,199.6 837.7,200.4 838.0,200.0 838.2,200.0 838.4,200.3 838.7,200.2 838.9,200.0 839.2,199.9 839.4,199.6 839.7,200.2 839.9,199.9 840.2,200.0 840.4,200.0 840.7,200.0 840.9,200.1 841.2,200.0 841.4,200.2 841.6,200.2 841.9,199.9 842.1,200.2 842.4,200.1 842.6,199.9 842.9,199.9 843.1,200.1 843.4,200.3 843.6,200.2 843.9,200.2 844.1,200.4 844.4,199.9 844.6,200.0 844.8,199.8 845.1,200.1 845.3,199.9 845.6,199.9 845.8,200.2 846.1,200.1 846.3,199.8 846.6,200.0 846.8,199.8 847.1,200.1 847.3,199.9 847.6,199.9 847.8,199.8 848.0,199.9 848.3,200.0 848.5,200.0 848.8,200.2 849.0,200.2 849.3,200.3 849.5,199.9 849.8,199.8 850.0,200.3 850.3,200.1 850.5,200.2 850.7,199.9 851.0,199.8 851.2,199.8 851.5,199.9 851.7,199.6 852.0,200.0 852.2,200.0 852.5,200.1 852.7,199.9 853.0,199.9 853.2,199.8 853.5,200.0 853.7,200.2 853.9,200.0 854.2,200.1 854.4,199.7 854.7,200.0 854.9,200.2 855.2,200.1 855.4,200.0 855.7,200.0 855.9,200.2 856.2,200.0 856.4,200.4 856.7,200.3 856.9,200.1 857.1,200.0 857.4,200.1 857.6,199.9 857.9,199.9 858.1,199.7 858.4,199.9 858.6,199.9 858.9,199.8 859.1,200.0 859.4,200.0 859.6,200.0 859.8,200.1 860.1,200.1 860.3,199.9 860.6,200.0 860.8,200.0 861.1,200.2 861.3,199.9 861.6,200.2 861.8,200.1 862.1,200.2 862.3,199.9 862.6,199.8 862.8,200.2 863.0,200.0 863.3,200.2 863.5,199.9 863.8,200.2 864.0,199.9 864.3,200.2 864.5,200.0 864.8,199.9 865.0,199.9 865.3,200.0 865.5,200.0 865.8,200.2 866.0,199.9 866.2,200.2 866.5,200.1 866.7,200.0 867.0,200.4 867.2,199.7 867.5,199.9 867.7,200.0 868.0,200.2 868.2,200.0 868.5,200.0 868.7,200.0 868.9,200.1 869.2,200.0 869.4,200.1 869.7,200.1 869.9,200.1 870.2,200.0 870.4,199.7 870.7,199.7 870.9,200.2 871.2,200.0 871.4,200.2 871.7,200.0 871.9,200.0 872.1,200.1 872.4,200.3 872.6,200.1 872.9,200.0 873.1,200.3 873.4,200.2 873.6,200.0 873.9,200.1 874.1,199.9 874.4,200.2 874.6,200.0 874.9,200.0 875.1,200.2 875.3,200.0 875.6,199.9 875.8,199.8 876.1,199.9 876.3,200.1 876.6,200.1 876.8,199.9 877.1,200.1 877.3,200.3 877.6,199.8 877.8,199.9 878.1,200.0 878.3,200.0 878.5,200.3 878.8,200.1 879.0,199.9 879.3,200.0 879.5,199.9 879.8,199.9 880.0,199.8 880.3,199.9 880.5,199.9 880.8,200.0 881.0,200.1 881.2,199.8 881.5,199.9 881.7,200.1 882.0,200.1 882.2,199.9 882.5,199.8 882.7,200.0 883.0,199.8 883.2,199.7 883.5,200.1 883.7,200.2 884.0,199.9 884.2,199.8 884.4,200.2 884.7,200.2 884.9,200.1 885.2,200.0 885.4,200.1 885.7,200.0 885.9,200.0 886.2,200.0 886.4,199.8 886.7,199.7 886.9,199.9 887.2,200.0 887.4,199.6 887.6,199.8 887.9,199.9 888.1,199.8 888.4,200.2 888.6,199.9 888.9,200.1 889.1,200.1 889.4,200.2 889.6,200.2 889.9,199.8 890.1,200.2 890.3,200.1 890.6,200.1 890.8,200.4 891.1,199.9 891.3,200.0 891.6,199.9 891.8,200.0 892.1,200.2 892.3,200.1 892.6,199.8 892.8,200.1 893.1,200.0 893.3,200.0 893.5,200.0 893.8,200.0 894.0,199.9 894.3,200.1 894.5,199.9 894.8,200.1 895.0,199.9 895.3,200.0 895.5,199.9 895.8,200.0 896.0,199.8 896.3,200.1 896.5,200.1 896.7,200.0 897.0,200.1 897.2,199.9 897.5,200.0 897.7,200.1 898.0,199.9 898.2,200.0 898.5,200.2 898.7,200.0 899.0,200.0 899.2,200.0 899.4,200.0 899.7,199.9 899.9,199.9 900.2,200.2 900.4,199.9 900.7,200.1 900.9,200.0 901.2,200.0 901.4,200.1 901.7,199.8 901.9,199.9 902.2,200.2 902.4,200.1 902.6,200.1 902.9,200.0 903.1,200.1 903.4,199.8 903.6,200.0 903.9,200.0 904.1,199.8 904.4,200.2 904.6,200.1 904.9,200.0 905.1,200.0 905.4,199.8 905.6,200.0 905.8,200.0 906.1,200.2 906.3,200.1 906.6,200.1 906.8,199.9 907.1,200.0 907.3,199.9 907.6,200.1 907.8,199.9 908.1,199.9 908.3,199.9 908.6,199.9 908.8,200.0 909.0,200.0 909.3,199.9 909.5,199.8 909.8,200.1 910.0,200.1 910.3,199.9 910.5,200.0 910.8,200.0 911.0,200.1 911.3,200.2 911.5,199.9 911.7,199.9 912.0,200.1 912.2,200.1 912.5,200.1 912.7,199.8 913.0,199.8 913.2,200.1 913.5,200.2 913.7,200.0 914.0,200.2 914.2,200.1 914.5,200.0 914.7,199.9 914.9,200.0 915.2,200.0 915.4,200.1 915.7,200.0 915.9,200.0 916.2,199.8 916.4,200.1 916.7,199.9 916.9,200.0 917.2,199.9 917.4,199.9 917.7,200.0 917.9,200.0 918.1,200.1 918.4,199.8 918.6,200.2 918.9,200.1 919.1,199.9 919.4,200.0 919.6,200.2 919.9,200.0 920.1,200.0 920.4,200.0 920.6,200.0 920.8,200.1 921.1,200.1 921.3,200.1 921.6,200.0 921.8,199.7 922.1,200.0 922.3,200.0 922.6,200.0 922.8,200.1 923.1,200.1 923.3,200.1 923.6,200.0 923.8,200.1 924.0,199.9 924.3,199.8 924.5,200.0 924.8,199.9 925.0,199.8 925.3,200.1 925.5,200.1 925.8,199.9 926.0,199.9 926.3,200.0 926.5,199.9 926.8,200.1 927.0,200.0 927.2,200.0 927.5,199.9 927.7,199.9 928.0,200.0 928.2,200.1 928.5,200.0 928.7,200.1 929.0,200.0 929.2,199.8 929.5,200.0 929.7,199.9 929.9,200.1 930.2,199.9 930.4,200.0 930.7,200.1 930.9,200.0 931.2,200.0 931.4,200.0 931.7,200.0 931.9,199.8 932.2,200.1 932.4,200.1 932.7,199.9 932.9,199.9 933.1,200.0 933.4,200.0 933.6,200.0 933.9,200.1 934.1,199.9 934.4,199.9 934.6,199.9 934.9,200.1 935.1,200.0 935.4,200.0 935.6,199.9 935.9,199.8 936.1,199.8 936.3,200.0 936.6,200.0 936.8,200.0 937.1,200.0 937.3,200.0 937.6,200.0 937.8,200.1 938.1,200.0 938.3,200.1 938.6,200.0 938.8,200.0 939.1,199.9 939.3,199.8 939.5,199.9 939.8,199.9 940.0,199.9 940.3,199.9 940.5,199.9 940.8,200.0 941.0,200.0 941.3,199.9 941.5,199.9 941.8,200.1 942.0,200.0 942.2,200.1 942.5,199.9 942.7,199.9 943.0,200.0 943.2,200.1 943.5,200.2 943.7,200.0 944.0,200.2 944.2,200.0 944.5,200.2 944.7,199.9 945.0,200.0 945.2,200.0 945.4,200.0 945.7,200.0 945.9,199.9 946.2,200.1 946.4,199.9 946.7,200.0 946.9,200.1 947.2,200.0 947.4,200.1 947.7,200.0 947.9,200.0 948.2,199.9 948.4,199.9 948.6,200.2 948.9,200.0 949.1,200.1 949.4,199.9 949.6,200.1 949.9,200.0 950.1,200.1 950.4,200.0 950.6,200.0 950.9,199.9 951.1,200.0 951.3,200.0 951.6,200.0 951.8,200.0 952.1,200.1 952.3,200.0 952.6,200.0 952.8,200.1 953.1,199.9 953.3,199.9 953.6,200.0 953.8,200.0 954.1,200.0 954.3,200.0 954.5,200.0 954.8,200.0 955.0,200.1 955.3,199.9 955.5,200.0 955.8,200.0 956.0,200.0 956.3,200.0 956.5,199.9 956.8,200.0 957.0,200.0 957.3,200.0 957.5,200.0 957.7,199.8 958.0,200.0 958.2,200.0 958.5,199.9 958.7,199.9 959.0,199.9 959.2,200.0 959.5,200.0 959.7,200.0 960.0,200.0 960.2,200.1 960.4,199.9 960.7,200.1 960.9,199.9 961.2,200.0 961.4,200.1 961.7,200.0 961.9,200.0 962.2,200.0 962.4,200.1 962.7,200.0 962.9,200.1 963.2,200.0 963.4,199.9 963.6,200.0 963.9,199.9 964.1,200.0 964.4,200.0 964.6,199.9 964.9,200.1 965.1,200.0 965.4,200.0 965.6,199.8 965.9,200.1 966.1,200.1 966.4,200.0 966.6,199.9 966.8,200.0 967.1,200.0 967.3,200.0 967.6,200.0 967.8,199.9 968.1,200.0 968.3,200.1 968.6,199.9 968.8,199.9 969.1,199.9 969.3,199.9 969.6,200.0 969.8,199.9 970.0,200.1 970.3,200.0 970.5,200.2 970.8,199.9 971.0,200.1 971.3,200.1 971.5,200.0 971.8,200.0 972.0,200.1 972.3,200.0 972.5,199.9 972.7,199.9 973.0,200.0 973.2,200.0 973.5,200.0 973.7,199.9 974.0,200.0 974.2,199.9 974.5,200.1 974.7,200.1 975.0,200.0 975.2,200.0 975.5,200.0 975.7,200.0 975.9,200.0 976.2,200.0 976.4,200.0 976.7,200.0 976.9,199.9 977.2,200.0 977.4,200.1 977.7,200.0 977.9,200.1 978.2,200.1 978.4,200.0 978.7,200.0 978.9,200.1 979.1,199.9 979.4,199.9 979.6,200.0 979.9,200.0 980.1,200.1 980.4,200.0 980.6,199.9 980.9,200.0 981.1,200.0 981.4,199.9 981.6,200.1 981.8,200.0 982.1,200.0 982.3,200.0 982.6,200.0 982.8,200.0 983.1,200.1 983.3,200.1 983.6,200.1 983.8,200.0 984.1,200.0 984.3,200.0 984.6,200.0 984.8,200.0 985.0,200.0 985.3,200.0 985.5,200.1 985.8,200.1 986.0,200.0 986.3,200.0 986.5,200.1 986.8,200.1 987.0,200.0 987.3,200.1 987.5,200.0 987.8,200.0 988.0,200.0" fill="none" stroke="currentColor" stroke-width="3" stroke-linejoin="round" vector-effect="non-scaling-stroke"/>
</svg>
